<mxfile host="app.diagrams.net" agent="Mozilla/5.0 (X11; Ubuntu; Linux x86_64; rv:139.0) Gecko/20100101 Firefox/139.0" version="27.0.9">
  <diagram name="Page-1" id="8UVzMFQWQ-5Ma0I6QzsQ">
    <mxGraphModel dx="1265" dy="201" grid="1" gridSize="10" guides="1" tooltips="1" connect="1" arrows="1" fold="1" page="1" pageScale="1" pageWidth="850" pageHeight="1100" math="0" shadow="0">
      <root>
        <mxCell id="0" />
        <mxCell id="1" parent="0" />
        <mxCell id="5HhIV1nGv7MH1atSg8IA-10" value="" style="shape=image;verticalLabelPosition=bottom;labelBackgroundColor=default;verticalAlign=top;aspect=fixed;imageAspect=0;image=data:image/png,iVBORw0KGgoAAAANSUhEUgAAAMQAAADLCAYAAAAx8Dy+AAAABHNCSVQICAgIfAhkiAAAABl0RVh0U29mdHdhcmUAZ25vbWUtc2NyZWVuc2hvdO8Dvz4AAAAudEVYdENyZWF0aW9uIFRpbWUARnJpIDA0IEp1bCAyMDI1IDA4OjMxOjA5IFBNIENFU1T96/0gAAAgAElEQVR4nO3dd3xb153n/c8FiMYGgGDvYi8gKYqiere65SKr2JLjJjt2HGeSONkkO7M7O7s7z2v2yTwzm012nDiZTdaJnXGcTORYsh3Fsqxq9V4piZ0UJXZ0EPU+f5CUYIlVViHF8369/LIk4B4cAPd377kX93yvZC6tkBEEAQDF/e6AIIwloiAEIUSY3mi4330QhDFD7CEEIYQoCEEIIQpCEEKIghCEEKIgBCHEBCkICX1mGYVJ2t6/6TOZXJiE9j73Shh7wu7li0VFG1i94QXUGi0SvT+Qy0j0uBz88d3/i9vpGFE74emzWbViJnlxYdjrD/HR+7uodg71g3sYxWu+y5NX/zPf+bdGFEVr+O76Fv7zf3iXhsBtvJGwCIw6H912LwCScSl/+7+fxPrjr/HjI77baFAYK0ZUEIYYEzn5xUM+p/riOSxdnUM+p7RiOq0tTSDd9IAMpVOmcWjvZ8P0RCKq4qv8j9en0P7pVnbvcmMqW8bXn7Xw1z87gWf4t3JHqCpf5ccPHeel/+czvIBsPcIf3rTQc95/j3og3C0jKghrVyeJyWmkpGcO+PiVxnqOHdgzZBtGUywKScJusw74uEqtISragN1mGbwRVTEbvzqXjne+y99vayMIsG8nmyWZ/v2DLmUysyqyiHTVc+LACRqH3HP005EyeRaVuXrcl/ez8+Q1vP0PaRIpmVFBfryC1hN72G9JZFZpChExDuYv8NNatZ/TbQoI+AnK13tB6uSZVGRF4mo4wf7jTThlQGGisDKejuOtxM2dR4nRxcW9n3GyTRTSWDGiYwgZ2LHtgwGHNG6ngx3bPmC41U6ni6CorIKSKdMG/K+4dAoqjXrINsJyZ1IRfortO/uKoa93veuhhGHa1/nnf3iBaXERxE7+Cn//z68zL/bm3dFNJD3TXv0h/+2pQsKDGoqe+W/8l0dSUABS9FS+9k//yGsL0ghXJ7Po+XUo4nKYkmVEGZVMQVEhGUYlKHNZ9eozzIlVgmRg+mv/xD9smkZcRCyTn/7v/Oj1ucRK9D7vG6/zg//0Oo/lGjCa1/Kf/stXyL+nA1dhKCP+KvpX/Ief2Igk9a5ksiwPWij91BotK1c/xdEDu4d9DY1Gy+oNL/DR5nfxenpueVwRF4ve2sy1gTaoyhxWPzOTq2//Ff/vpxZk3ufi9/6F59YUs+fnFwd9TWX2YzxTVsVPX/8px92gOBTk//v+EoJb3yb38eeY1/Uu3/rvf6b9esUrePfwfGYV7eLnP+0dMqEK7cbjPDvjKm9/84ds75bh/Yt8/1+eZa35AG9W9T6n7k//wBsn3RB5leRfPkRJrIKL14II99+otk1XGus5fmgfFTPmAnD80D6uNNYPuUx55UwCfj9ej5erzY0E5N4vXiFJSJJEIHjj7wG/D7/fR3nlTA7t23lLW7LHg0+jI3yAjb4UmUdOQjNHT1r79lYOTp5u4NuL84HBCyIyP5eU8Cge//7f8SiAZCQuphmIJD8vgaZjR+kY4QXyv20Mon84m4TmY5yw9C3kOMnphm+xOC8WqgDZiaWrb0DmsWL3qNCoh9mLCffMqHfWxw7sITE57fqfh5KYnIZGq6Ozo43C0nLaW69C396lq72NQNBPfGJy75BHlikqqaCzrRWNVkdichrXWpq+0J6/5jJN+kWUJCs50/jF00Oy34NPVqPRSPQO8iQ0GjV4vQzF7/Hhbz3E2z/7lP51WA64ARmvT0at0dDf4nCeTlfwJ4+PoFqD9no3tGjU4PPeq0N+4csY9e8Q/ccTIzluiNIbKCwpp6S8koLiMkorplM6ZRqlU6aRNimbtPQsSsp7/15aMZ18cxklU6ZRWFJOlP7Wq3Dljt1sPRTNw688QUFEb2Gpkufw7NOzwXWKoxcTmLOsgHAATTbL56dRe+x4X797i6T3L71/lgDX6WNcTJjGnFgn7e3ttLfbcfe4ATenT1STNHcVZVESIBGVmgbI9PR4kcKjiB5gw+46fYxLCbNZVhBObzeWMT+tlqPHBz6ZIIwtt3U4N9LfC4Yky8jSKCfryTb2/+x/EPP1v+Jv/88qXBYf4RFuTr33Y3RyO3/+6S+Y9IPv8ebPHLi0UfhPv8UPt1wBFFxpbidx6RrmfPQj9rZcoT1pKWtnf8Q/7dnGG/+awQ++9wZvtF+jJ0JPz65/5u/+UMO1j3/KL7N/wHd/9gss3RARPMWv/v4NPj++j9Prn+WHP5rLpe3/zA8/Celi2zb+5ReZ/PX3fsrPHS600X5Ov/WPfHAl+IVjDWFskmbPf+iuTSHNLTSzcNmjyMEvHjDKSNRXVxHw+8kuMF//ke56pxQKdv5lC5cvnB207bCIOBINEtbWNuxfOMhWoDWaiOjppNMd8rqSDlNyFN5rbdgDEjpTMtGea7Q6+oZeYZHEJxqg+xptzi8etSu0RuKjvHS0O+l/RNIYSIpVYb3WjnOgH/cUWmJiw3F3dOEWx8vjxl0tCEEYbybItUyCMDKiIAQhhCgIQQghCkIQQoiCEIQQYdbuIa4uFYQJRuwhBCGEKAhBCCEKQhBCiIIQhBCiIAQhxLgpiLTMLJ579dus3vAc0YaYkS8oRRCXlYFh6Nmpo2guiYw00zi4cFUiPCGHVJPmfndkXLnrBbFy9XrCVLe/+sSY4li98QU2bHqVhKQUcgvNvPzt77Nw+So0Wt3wDSgnMX3NYxQb7sxbVaQv4OGHp6Af85sSJSlzN7BkStz97si4ctent5vLK0lMSWfLe2/T0d464uUiIiOZs2gZpRXTr8/h7qdQKKmcNZ+S8koO7dvF4X27kGVx0a7w5d2TvIfY+ASeeeWbbP/ofc6eODqiZfLNpTgdTvw+Hyr1wOMdr8cLskxSajotTQ1DN6iKIb2sgKQIF1fOnqLZ1jeJQdJgzDKTlWJA6Wjg4ulqrP4by6QVFpCsV2CtOcHFFudNjUpEphWTFGyg+oodWWUiw1xEUkQAp81NgADW+jO0kE623kqjK5HigmjaTx6h2Smjjs0lNycZreca9Rcu0dkjA0oMk8xE287S2BkAVBiziojsOk2TBSLTitDbLmLVl1KYGY2n+RTnarsJ9PVHE59Pfk4SKstl3MHQjYQGU345OYk6vG0XqapqwS22Ibe4Zzt+lVrNytVPjngINXXmfPKKzWz/cDOnjh76wmMej4fd2z/m2ME9TJ+7iIxJOUM3pjBR8tg6JidHok2ey+Nf3UBRtAQoSX5oE4/OyiJKqSK2ciNPPlyAGpDCC3joq6+xtDQBtSqW4iUPkXlTXarTl7H6iUoiepzIiiSmP/sy8zPD8MgJlK54lCk5yeh1EoqUWSxdtY5HVs8mIUpNsxPC85/gK88/TI5BR1T2Mta//CQF0RKgIXPuWmbm6HonvErhZC1Yy7RJYYCSpOlrWLnuOVbOTCc8KovpG15gTqoSkAgvXMMzmx4lL0ZLVMHDzMrvH1JKmGZvYv2iTJQ+CePk5UzLukMHVQ+Ye54IZC6vRKXS8MHv3x72ubFxCax84inqqy+z9Q+/pbRiOpauTlqaGpgxbxFGUyzQP196CLKNi1v/lZ1NfpAO4nj+O0wpM3FhbwctO97kN3JvC4paNZvWmPFyicRZKyi0f8pvfnsAW0jzyr7/S9GTWfpoHs1b/pWTnUEUSWUU6i+z+62d1AWUtEVl8ZDnJFWtQaQYUBhkat/8FSe6ZVCkUrnYTPeOH7HlhB2Z3Vxd+13mzZ1E1UfXhv8QW/fwp62X8aLDEvM3mDP10KJj6kIz1h3/iz8esSATRsvav2F2X69jk+PpqfmIw/sb8e8f/iUmqnteEGdPHOGTD98f1TKZOblk5uSyc9sWElPSWbF6/eheVPbh9fTN45TttLU5qTTFoqCDoCaZwllzKMyMQa2MJlxzBdCRlGKi8/IF7APUmqSMp2LtHPJ8+/hNg7u3WYcFhyKdmCiJOqsOg0FDT537erRBsLuBJmtvY5IunQRDO7U1jr5SdlNff40Vk9OB4QpCxuOw9U1l9eFye1GqVKBJI8HYTkO19frm4caGwk/N3u3kr32OF9NrOH94F4fPtOARQ6Zb3LMhk8/r5eP33+Pj93+P33d7gcBxiSmY4uK/ZE8UaLVq/J4eAlI8lRufY7LyFJ++/TN+96fjWIIAQfwBmTDVwMMKKa6QhOat7HdPZdG02N6YGvtxjl2KZtpXXmPDi5so8+1k13HrgPsuOeAjIIdxo3kJlSoMAj76I3RuPpEwrGCAIEqUyoEf9l/bz5Y3/pE/7G3BMO8lnlyYOn7Oud9D9+Qz6Whr5e2f/2TEB9SDkocdHA1M0hEdE44EKIzllGT5aLx8BcKSSIp3UH/yIlafEn1KYl8IWg9NNc0YS2aREd4bQaONjSeyP8Wm8yDbtx/l8F8OoZr9GGVGCdRmyjIb+Mub/8K7/+cn/NsfD9A2WN17qqltjiG/IhM1gCqFspIE2i5dAvy43T6iYhNQAqqEErJiR/A1eRtpaY8ltzSFMEDSppBk6q84JYa0TPQKD10Xd7P7eDuGhHgGqZ0J7a4PmfqHSKPdKxzet5M5i5YRHhE55PNar7VQe6lq6MYCHiLKX+D5hWGooyOwH/8922p8QA0Xzi9h6bPfIssRxHO1DUcgjAKVTNXhzXyW9BUe/qsf4HKAJljNrt/+kcuA7PPglSHYupddZ8p4ZHkFJ3/XxFXno6z8Rhp2TwA54MVx9SQHPjlA2839kbs5tfUD4p7cyEvfdOFRRRCo+5gtB9sBqD95ktnrnuHFDCs9lnPUNrkY9tcEuZVjf9lDxrqXeKnAgldy0W639W5ApGgSy1Yx53EJhx2ijEFOfnABEdx/K8lcWjFmR5JqtYbpcxdSOWs+Yaowzp44SlxSMgmJyTgcNvZu38aZE0dG2JpEWIQBjc+C0xv6lhVoomPQ+ruxum7Nk5HUUUTr/NitboZKk1GmreCpBW4+/dMJesKUKHXJVDz+JNGH/oE/HnMP2idVlAGNx4LD+8WvQaE1otd5sXU7GdUtLJTh6I1avN1duG9eUKlDb9QN/JgA3IeD6tHwej3s3bGNE0cOsGDpChRhYSiQ2PfZJxzetwu/fzTbOBm/s5tbc5KDeGwdg95bQvbasQ6dhglIaBKSiaYKr8uKNQBKKQNtWDedbUMtLOOzdw+4pQ72dNN9a97z8AIurB2uQR5zY+0YrDgFGON7iJvFxicQCATo7uy43125lSqB4qWrKE8LJ+gLgL+bhkN/4WBV1+i28MJ9Na4KQhDuNnHmTRBCiIIQhBCiIAQhhCgIQQghCkIQQoiCEIQQoiAEIYQoCEEIIQpCEEKM6WuZQqVlZrFoxaPYLN3s+PNWbJaukS0oRRA3KRZfcwOWYa9JEiY6ZXxC8n+9my+wcvV66mouEQze3p0HY0xxLF/9JPOXrCQyKhpTXDxTps9Co9VytbmJgP/Wy/W+ICyfRZtWEHXxCE3O8XeVihQ1jSdef46M9gNUd4q7N95tIoZmjJMdFzj0oQNvo7hE8F6463uI2QuXEh4Ribl8Kg67jbZrLSNarmTKVJAVJKWkohxkXqTL6eTalUaCsozdNsiN0RXx5M2cRM/5aqSsKRRkxyJZ27Bdn1CswpA9BbM5j8RYI8a4JGI0brrkRHLiJRyqTEqnZBHW1YJtkKvNpegMchIk7FIq5qllpEZ66Opwokoqo2xKIbEKCx2Wnt4gA2M2+UlKui0uZCDMlENegkynpYfeqJhKSs25xId7sXba8aMjKjacQFcn/dM1VMYsCsrKyE7T4+9uwyFm+twx96QgAJRKJbmFZvQG44iGUI+s+wrG2Fj2fvpnXE4nicmp1x/zeDx8vvMTWprqmDFvMU67neaGuoEbUsSTN3squZMyiAi4CJimMH9RNo5zZ2j3KIib8zLrZmppa3ZgnLyUyjRwdLTQHDGXJ5eWk5KXhtpjobO+6UZe002UWSt5atUM0ifFE+bXMWnuMvITksgrMCHLSZQ+NJ3w2sM02GW0JWt5qjLIqVNN+JAIn7ye9WU9HDxzFdPsr7J+hpa2FhdRBVNJdp2jwZbF/GeXEFF1hCYn6PIeY+PTc4h2deLW5WFOd3K5ulNcYn6HTOgYmvOfaygsMdLw6S84dDmA4mo0aSs9XDh7FfJvio4Z1lWO/O6P1PUoSQ5+h/XJV3jrrT1YguF0GP+a4kw90pXuIZYfJCom9BtSpFC5eDKOnT9m8xHL7c0vF4Z0z0+7nj1xhI/e/92olsnMyeWRdU9Te+k8ao2GFavXXy+GERkghibSFAuyHatDQbQpGgkJrcmIusd5PZ4lNDpm2Jfw2LB7AYK4nG4CThuOIIAXt9vXGxUzhLC+qJjOvOd48aWNzC1NRnNz8IYunURjG/WXBk7zEL68e7aH8Hm9o4qyHMgdjaFx9aCQbZw/cIGpj2/i6eIeFFInBz88jF3mriVSyMggKRgoZKY3KuYYMXkzmb3kJZ6M/RW/2RPyhICPACrCxn70+Lh1Twqio6111GeZBvRlY2jaHEj9MTTvXyGIhsKpWVz54EdsuzzM6ds7xO9y49fHYQoDJ4nk58QjBcGPEkNaGnJLfW9UjKmQ5zPigZAfTzw11Lesomx6Dic/vowbHTGxKrrbbWKPcYdM8BgaiWvNThY98V2SbB6CcgCv7QoXdn/EmVH1duT8NUe5sPBpHv/GJOw93VRfasCdwKBRMZB9Y2G5ixNbt5Kw/ile/JYDJzqCdR+xecupARMGhdEb03Oq73oMjTKDeS8swfPxe5x3q1AqdcTPWM8Kw+e8+c7hLyRxKNQR6DQDHHL53Dh7Rrl3UeiINurwW7tw3bzoiKJiJFRRRnQ+K7YecX7pThrTl27c7RgaSZtIvAFqPS7s3QEIM5GsVWFrb70pGkZCX7SYeQX6W8b+wZb9fLSnenSnPYNubJ2DxMGMKCpGxmfvEkFjd8GY3kPc7M7H0KiInfwwC6alow36COLHVrOffXvOYREb3glpXBWEINxt4vJvQQghCkIQQoiCEIQQoiAEIYQoCEEIIQpCEEKIghCEEKIgBCGEKAhBCDGmr2UKddsxNEIvEcczIg9+DM0EoNRGoZW8+If6iMd5HM+9ImJoxr0wsld9i+LqH/L+SXH965f14MfQAKDBmF2O2ZxLrMpOZ7ebIBKRacXESd3ICZMpK8snVmmlo7vnxuwzdSyZpRUUZCcS5mjD0hMESU9yQRKSVSKxfAaFGVF4Otpxq1IomFpJVrwCe1s3HlUCkwriCXZY+uZVSOgSC8mIdmOxD73iDhgzI2kwZk+muKSINJMSR3sXnqCCqNQSiieXESt349Pq8HV20yMP0EagN47HfaaKYPY0zLkJKG3XsPbc2JCoTbkUTi4jM0GFs6OLnmBfxM4I43geBA9+DI0UQfaqr/GwWUFXh5+46Q8zWXWJc80eMpa+wpKKLNLj1XilZMqWzCSi7jANNhkpopAlmzaQr2iny5/ElKUzUNWc4Ko3h/nPr6ZsUjYmlR9N7kLmFCcSX2TGIMvETVlOWcRlTtZqmLJ+Axmdh6jpCoJkoGzt8+RY9lPVNtgwTxowZuZctYXkxS+xskiD2+FHX7qcWcmtHLvYTVzhHIpzkwmXXQTVcO5i88Bt1CrJmz2Z9NRMjIoeSJrOvMooGo9fxiFLhOev5qk1pUgd7QQSZ7OgQkX96Sa8WStHHMfzIHjgY2gUSfOYm9XA9jc3U+8FqSrI0+sq4eAnvU9o3cOftl7Giw5LzN9gztRDs4WEmcvIaHqf32y9hBeJ6uBrPFqewrGdvYu17f81n1T3oEgL8sKzqbT+9Occ6Q6ia4vh5bJsCOzl9Bkna0vzUFWfwx9VRHZMHacuDTH5Z4iYmZYdb/Kbvjnlilo1m9aYmaSsou7wp1SXlJB6egufnPSBInXgNsLMIHu5suvXfFLjAV0nhu9MJT1a4qo1hamLcmj58Cd8Uu0B6TzBlzZSknyAfYw2jmd8u+cF0T/HejQyc3LJzMll57YtJKaks2L1+hEvq01NI0ajo3L9JioApCiio9v6HpXxOGx9s+h8uNzevrgYHUkp8ajD5/HIV+bQu5iByHZD32JunLbeUzWy04En4MDRmzmD1+UmEKbCJAXpPHmc7k3l5GjP01hQhKHhILWD3SEersfM1A0QMyNpkimcNYfCzBjUymjCNVdujakZpg1kN87+4ZrPSY9XSZhK6l0mVotu5tOsmQEgEamPplOvAHl0cTzj3QMfQxPw+wlYzrP3wyO4+r5TOTjUWgkQwB/wY7uwje0nHH3/JhP0OoGCEb+2bD3B2ZY55BfGoc6NoenoxaGnfQ4WMyPFU7nxOXKaNvPR21XYDEt4ZlMCA2bZ3E5UTcBHINDN5c/e56zj+oeE1+WH3FG08wC4Jz/MdbS18vbPf/KligG4rRgab20VLcYi8vVubFYLNqsLr3e4gvDQcKkRfUEp0T2W3uXcHryeUQ6eZSeXTtRiKltBvqGWqtphjkY9NdS3mCicnoNOAiQdMXHREJZEUryD+pMXsfqU6FMSCb9eDF58fgmNLry3PgZrY8jXraa22UhOkYEea+/7dXs9eB/gY4XBPPAxNLLlIJ98nMija/8DL1i78Gkj8J56l9/vHeoUsIzt6GZ2JDzNqm98B3u3F02El/N//CUH24ZYbAC+6sPULXuF3Lpf0TjcRzBIzMyvt9Rw4fwSlj77LbIcQTxX23AE+r462Und2RpmLn6VZ8xNnNn8bwO38dEQk8Tlbk5t3ULcuo1ses2C1asl3HucD9/ZyZ2avT5ejOk51Xc0hkapI9oYBY7OUUW3KHRGDBHg7O7GczvBA4pk5r7yNOqP/yc7GgKAAnV4BKoBziT73XZ6d0IDxcwo0ETHoPV3Y3Xd3BEJVaSJKKUDi7WHIIO1MRwlWoOJcOxYLG4m4t0oxnRB9IuM1rNg6QqQlMTFJXDx/JnbiKG515REJmSSWrKE+WkX+MNbu+mSASmW4hUryI2+JdCG1kO/40DdBBynjCHjoiD63fkYmrtIiqXk0cfIlWo4umM3jSJab1wYVwUhCHebuPxbEEKIghCEEKIgBCGEKAhBCCEKQhBCiIIQhBCiIAQhhCgIQQghCkIQQogYGkEIcdcv3Vi5ev1tXf7dL8YUx/xlq8gtKLr+b8FggGMH97F/1w48PcPcj03Skz13PpOiQnaGwQ4u7dxHY89tdekO0RBXMpfJ+clESg5aqw5y7GzL9ZvGC/fHXQ8ZWL3xeXILzTTV1eByOUe8XERkJIuWP8KK1etvmSUnSQpS0jKZPHU6SBItTQ2DN6SIp3TVwyRbztLU4cDtcuJ2Wum81sYtV1HfMxKGyud4am4kzadP09gtkTh1ARmOk9R0ipvb3U8PfgyNpCdzagmBI++x53QDV680cbWlrxj6I2UsQWJLpg8QzTJUfI0FKWUqZeZMIrwddDlVJJhnUJKXgMLaitUjo47LIycuSJe1b1ckhROfl4Oz00rOoscwXPg1Hx+qo+NqHdUnDlPb6Yf+9hU2lKkVlJpzMGKhw+rpnS04YByNRHRGKclqCxZXAKQIEvLz0XvbsXsBZQxphYnY2q3DR+9McBMghkZPZmUZ6trPudx502uG5TL/+dWUZuYQq7opmoVh4mum5pAepyKgK2DGolLiEs3kxsjI8dOYOzWChmPV2E2zeWxNDt3HLmAJgqSfzqqNxZzbfwpMZqaVpxFoa6DV4glZIcPIWPoKK+eaSY3y4/LHUrxkORmOU1xs9Q8SR9NF1JQnebzQxsnzbchRlax84QlyvKc50+BCkb6UtYujOXG0YcjoHWECxNAAIEVSsO5vyQkCBOnc/wve3X31+oyw9v23RrO06oaLr9nNn7ZcwqPMIPjaV0ls+Z+8t7+LYHgr+tenkBYtca35MBdcmyjMUVN3wUdEQSHGhkOoCdK25x22ha1m3obvM63zPKf2bufw+ba+EAKZnosf8PttDQSQOGV7mRemTcF4euegcTQNNXV4SrNJUp7h2qQswqqrUGTkEi51oJ2UDo0f3fg8BozeEScpYALE0AAgO6j6ww/5+NIAs9EGiWYZNr7Gbu1deYMOXG4/Lru9t8C8Tnr8YahUQLCVs6c62FhShKaqhtw8E01Hq/ACBLq4tP2XXN6bSN6Mxcx+/OukRL/B7w92A+D39A9jZBzXWnHNjsWoAItq4DiaYMslriiXkR6rJmySkY6TO5CWVJChOYsmPZKrh5tu9H3A6B0BJkAMze26vfiam8nYTx/l2swyck0asoy1nKz+YvS23HONi7t+yzX/13mhuBAO7r+lFYVOi8rnojYYz7TB4mh8ddQ3R1GalYsqvoumbTXQtoKMrGxUsVepa/Axjs6y3zcPfAzN7bq9+Jpbya6znKmPo3hJKdENp+hdL1OpfPwJypJ1vdExUjhxsZF4rf3DFgmNIRatBChiKCrPxV9fNWwcTWNtC8b8mST11NHo9dJYbyGhYgpxXTX3+RTz+PHAx9AANx1DALKFM7/7CTubB1/k9uJrBuKl7tglFr5QTOM7Nb1DlUAnV1o1LH76PzLXZ6cnLBK19QSf/v4c0HtGTZU4n7WvLkGp1aOzHeHjDy6DP2LwOBpk3DU12FcuR7l7Cy5Zhto6AsuXwN6PcIhj5hEZ03Oq72gMze26zfiaUIrE5TyzXsOONz6gObQJSU1EjAGNz4rF5uk7yA8jd+1fM7PzF7yzz0Wk1oPd7g3ZMw4VRyN8WWN6UOn1eti7YxsnjhxgwdIVKMLCUCCx77NP7l0MTcCNrWOYX8MHo9QTl55J4cJyPMd+yZWb11/Zi7OzjUF/rvTZB4ieD+KxdTD6wZswEmO6IPo5bFY+/Pffja8YGkAy5DFljhnp0h/Yur9thMc/Ms6WyzTbPeLHsvtgTA+ZBOFeE5d/C0IIURCCEEIUhCCEEAUhCCFEQQhCCFEQghBCFIQghBAFIQghREEIQohxcekGjKWJN1YAAA1qSURBVJ0YGikiifRYH1cbOvAO/3RhnLnrc6pXrl4/ojnUg4kxxbF89ZPMX7KSyKhoTHHxTJk+C41Wy9XmJgL+Ye7JJunJnruAJHcd7f0zfaRIMmcvJi1QQ9sob3WlzHmEjctM1B+rFpdUP4Du+h7CXF5JYko6W957m472kc8liIiMZM6iZZRWTEeSvniDQoVCSeWs+ZSUV3Jo3y4O79uFLA+ydkrRpJZOJaJ1B+fb+4synGTzDOLt2znTMhHvtSkM5p4cQ8TGJ/DMK9/EXD51xMvkm0txOpxDTizyerwgyySlpn+J3ikxTCoj3dQfdaPCmFVGmuFGEUraBLIq5jF9RglxquCEvF3tRHHPDqpVajUrVz/JytXrCRvBpPapM+eTV2xm+4ebOXX00Bce83g87N7+MccO7mH63EVkTMr5Ej3TkDl3LTNzbkznzFqwlmmTeneeUkQxS19+lUVFJjTRRcxfUIT2S7yaMLZNmBiawif/jrzrm3YJhQpqh+2BgviZS8mz/IVfv3MAmwzK5g18beGwCwrj1ISJobnwXkgMjRTPrJe/wfD5HRoSk0101V7k+rG3OJB+oIkYGmRAuuXAvVeQYFBGoRw3Z6eFL0nE0ODH7fYRFZuAElAllJAV2/+xeGlpasNYUE6CCpC0JKbEIWK9HlwTI4ZmSD7qT55k9rpneDHDSo/lHLVNLuIAkOk8+CFHsp5m3TeLsHsk3K028fvDA2xMz6m+lzE0Cq0Rvc6LrdvJreEuSnSGGNTeLhH98oAb0wXRLzJaz4KlK0BSEheXwMXzZ+5dDI0woYyLgug33mJohPFnXJ0+6WgbbYykIIyOuPxbEEKIghCEEKIgBCGEKAhBCCEKQhBCiIIQhBCiIAQhhCgIQQghCkIQQoybX6rvTgyNRHhCNkZfI1e6RKiMcA8KYuXq9bd1+Xe/GFMc85etIregCICEpBSy8ws5dnAf+3ftwNMzzP3fJD3Zc+czKUpCloP4XV20Xj7NpSt2gihJmbuh9waHO1tFeIAwUWJophBXvY1z7RIaQxoVGxZQuPNnvH/M9mXemvAAmhgxNLIPa+1RTh87wJEdf+D93a2kTTYP8EQJtSmX4pmLmDm7kgxD7/ZCHZdHfoaR62UphROfV0hC313T1aZczDMXMq0iF0PfdDopOoOcNANqUwHls6eRGjHQFFVhrJmgMTQSDLBHUaQuY836eaRHKQlLmMkjLzxOlgb8ugLmPLGIzOsr+xQWPjqVVheE569m4zOLSdHIqNKXs27DbGIkUKTMYumqdTyyejYJUWqUYjw2LkyQGJowIlMKyVGCxpBFyax4Gj/791ueFmz+C797U+6tFWU1qtc2kJumpLb2MBdcmyjMUVN3wUdEQSHGhkOgSGHqohxaPvwJn1R7QDpP8KWNlCQfYB+gMMjUvvkrTnSPmyknE97EiKFBhX7SZIpiA/jdnVRtfoMzdRZuefuSlvjSeVSUTEKvDiMyUkOrVoJgK2dPdbCxpAhNVQ25eSaajlaBbiqJsVp0M59mzQwAiUh9NJ16BcgQ7G6gySqKYTyZGDE0spsr+969kcs0CNOs51ldWM8n//5Laq0xzHrla8QiATL200e5NrOMXJOGLGMtJ6u9oPQRCHRz+bP3OdufPCAH8br8kDv6bgr3n4ihkYG+w+W41ARc1ceps/hQGFKJCzkQll1nOVMfR/GSUqIbTtHgAzzV1DYbySky0GO1YLNacHs9eIcJJBfGrgkeQxOgq8OCoWIB+Yffo+HMGWY/8iLP5joI9lyhyxZAef25XuqOXWLhC8U0vlODH0Du5tTWLcSt28im1yxYvVrCvcf58J2diFnf49OYDhm4JzE0koZIUzj+rm56gqDQ6tHrfNi6XbfE0SgSl/PMeg073viA5i88qERrMBGOHYvFLX7gG8fGdEH0u+8xNEo9cemZFC5cSfLFX/Le520i4vUBNS4Kot/9iqGRTJUsXWlGqtvL3s+rcY6bT0wYrXFVEIJwt4nLvwUhhCgIQQghCkIQQoiCEIQQoiAEIYQoCEEIIQpCEEKIghCEEKIgBCHEuCmItMwsnnv126ze8BzRhph7/OoS4Qk5pMSo7/Hr3gFSBHFZGRjGYdfvh7teECOdQz2YGFMcqze+wIZNr5KQlEJuoZmXv/19Fi5fhUaru4M9HUpvXM1DZcbRfWBKHRHhd+smvko0keHDX7+vnMT0NY9RbBg327776q5/SubySp595VvExiWMarmIyEiWPbqGF7/5veuZTP36Y2heef0/Mn3uwkFuun7/KfMf57nHS+/OpJOwQpZ8bT354qbZd5QyPiH5v97NF5i9cCnhEZGYy6fisNtou9YyouVKpkwFWUFSSipKpXLA57icTq5daSQoy9ht1oEbkvQk5yci2VWkVFSSFtZJm9UL6jgyS6aQNyketacLqytkmpsqhjRzOYV5GUT5O+mwBzAVzSXNfYzT9U5kSU9yUQ6R7g4cXgANxuxyzOZcYlV2OrvdEJ1OflkFBXFg82nRetux9gx9HaXKmEVBWRnZaXr83W04fICkwZg9meKSItJMShztXXjQk1xUQbE5HqxeNDovXRY3MioMmWUUmQtJjvZjbbfhU8STN3MS7jNVBLOnYc5NQGm7FtKXW/sepC9GJ17CocqkdEoWYV0t2CbATV/vSUEAKJVKcgvN6A1G6mouEQwOPY3mkXVfwRgby95P/4zL6SQxOfX6Yx6Ph893fkJLUx0z5i3GabfT3FA3cENhucx//mEKMwpJVPdga6/hqjePpS89Q4nOik1OonTJUlLtZ6lu8yCFF/DQi89TYXBhcYUzqXwSF05dDikIP8mLN/FwTgenTzTTQwTZq77Gw2YFXR1+4qY/zGTVJS54J1FRVkB8hExPUA3d1Vy1DvaeJXR5j7Hx6TlEuzpx6/Iwpzs5V20hefFLrCzS4Hb40ZcuZ1ZyK8eqw8idWUFWUiSyK4iKLmpafGStfJUnZhhxdzvR5lSS4jpLncVE3uzJpKdmYlT0QNJ05lVG0Xj8Mo5B+n6+2YUiayVPLi0nJS8NtcdCZ30T1gkwNXZixNAojMiXfswfD3choyBxyXJyu7bx1u+P4pThSPNGXli8EPnsFhJnraDQ/im/+e0BbNeb7f+YFESVPMGynDr+8tZBuoOgSJ7H3KwGtr+5mXovSFVBnl5XSeDgn9l/sZz8jOPs2HqMIdclRQqViyfj2PljNh+xfOHdtOx4k9/0zSVX1KrZtMbMJPnfObHrPIVFkzj3582c84EieQXzS+x8/ub/5WRo0kcYIHu5suvXfFLjAV0nhu9MJT1aolU3cN8TDn9MOxMzRmdixNAEO2mp71vRJB1JyTF0Xb6Mq+977qmpoePxqYCOpBQTnZcvYB9gHVDGzmHVjBL8B35Cc0/vv2lT04jR6Khcv4kKACmK6Oi20fVPl06isY26S9ZbSlvSJFM4aw6FmTGoldGEa66gGeCQSZuahr6jilrbAB2X3TjtfeMdn5Mer5IwlTRo36MV0M7EjNGZGDE0oeQA/kCQMNWN85CSWkUYfiCIPyB/4bEbFJjyUzj20XbiFjxK+Zl/5VinTMDvJ2A5z94Pj1wvMDnoGV2fAj4CqAi7+QBZiqdy43PkNG3mo7ersBmW8MymBBigIAJ+P3KYelRf6GB9d02AodFgJmAMjYeGS03oi6eTogFQkVBRjulaFdBDU00zxpJZZIRLgIQ2tr8AZbqPvM/uE3vYeUxF5crp6CXw1lbRYiwiX+/GZrVgs7rwensLwuf1gSYc3XAnwTw11LeYKJye0/tcSUdMXDSEJZEU76D+5EWsPiX6lETC+9vyevGjRdfXuLfuEq0xZUzJCqe3iXhMUUO/8GB9vzlcYSK56wfVeoORze++hcM+uqTtQMBPUmo6KvWNrXXbtRYioqKIjIy6/m+t11o4sm83Tod94Ib6zrL0nDpMU99kaM/VeuyJ81m2ch4lFfMoNTWxZ/M22lxBeq424kyZz5IV8zFPnsPUoiiOHq3CVDSHZMchTtfbcba0ETHzcYr8p7lQX8sVazLTHn2MimIz5llzyQ2r50KjDZ9bRfKspUwvNZOsqOXSFdcg79ZNa7ODxNmreWh2BcUz5pIX1c6pCzXIMdOZs2gaeaWVZCjtBGMUtBw8TYfHRVjaPObMLScvTcnpYwdpcaZSuepRppVVUDHTTETnBWo69F98/yGfR2Nn8yB9tyPFlTA108W5Y7XX9x4TwZieU323Y2gkdRRRGi92u+fWsbs6imidH7t1hLEySh3RxihwdGLrubGNlVRRGPRKurvc6MLVKG7eaMt+ehzuvq2yhCrKiM5nDWlDgSY6Bq2/G6vrpm23pCIixoDS2YmtJ9jfcSIM4fhtFjwj3dQP0veJaEwXRL/7HkNzB0imChYtLuaWUUywmeObP6NxAo/bx5JxURD97lcMjTBxjJt7zEHvwbkg3E3iii9BCCEKQhBCiIIQhBCiIAQhhCgIQQghCkIQQoiCEIQQoiAEIYQoCEEIIQpCEEKIghCEEKIgBCGEKAhBCCEKQhBCiIIQhBCiIAQhhCgIQQghCkIQQoiCEIQQ/z84CcmbLriVvwAAAABJRU5ErkJggg==;" vertex="1" parent="1">
          <mxGeometry x="200" y="260" width="154.48" height="160" as="geometry" />
        </mxCell>
        <mxCell id="5HhIV1nGv7MH1atSg8IA-12" value="" style="shape=image;verticalLabelPosition=bottom;labelBackgroundColor=default;verticalAlign=top;aspect=fixed;imageAspect=0;image=data:image/png,iVBORw0KGgoAAAANSUhEUgAAATIAAACaCAYAAAAq/sTyAAAABHNCSVQICAgIfAhkiAAAABl0RVh0U29mdHdhcmUAZ25vbWUtc2NyZWVuc2hvdO8Dvz4AAAAudEVYdENyZWF0aW9uIFRpbWUARnJpIDA0IEp1bCAyMDI1IDA4OjMzOjMzIFBNIENFU1RvyVIiAAAgAElEQVR4nO3deXRTV4Ln8e/TakmWbUmWN3nD2HjFxhiDgbDvIUAIhISC7EmtnVo7XTNzZrq6p890T/dMdU93V6qrk6ruylZVWUgKSAgJYUsIkLCDwWYztrGNdy1etOvNH7LNZhtDTEDU/Zzjc2Q9vfveu7J/uu++p3ulouIyGUEQhAimuNM7IAiC8FWJIBMEIeKJIBMEIeLdw0EmoU/MxmbWhH8zJJORZkF9h/dKEITRp7rdG4iJM/P4t55HG6UDue+6giTR293Fqy/9Cz1dXSMqR5MwnonlRSTFqvC0nOTI50do8Qx3nUKJbcZapna8xOs7W5DSZ7N0VjtvvbSN9tAtHIhSh0EboKfXHz4E42RWfnc+ve/9A1vPBG6hQEEQRsuQQWa2JpBfNGHYlasqj9LZ1jrsayZPm0Vjfe2gyyZNncnujz+4wS5K6HKW8+hDubiO7KHquJfoMVNYML+bN98/g/8Ga48WZe6DPDHhDC/97hABQO6u4ov3u/HVB7+mPRAEYShDBpm9vY3UjDFkZGUPuryu5hx7d20btvB4ayKSApwO+6DLNVotMXFmXI7OYfZwDNOWlODa/q+8e9CODFB5mAOSTH97TBOfQ052ClHeZmqrztAxbEutnxbT2PGMTTHgazrBqfOdDLSr1GbS8vNIiVXgPH+EM90Wxo2xojW6ySsO4rp4gnqHAlkOIPe3MtFiHlvEmCQd3taznD3XglcGpFhSck10n+vEWDiBdKOHpspD1DlEAArCaBkyyGRZ5v0Nv+PJb/8Ig9F41bKeri7e3/C7K/6JB6c3RFM6edqwrzl6YN+wyxW2IsZEneXTY3Yub03uO0uV0Oeu5NFl6XRUVuOMXsSaGaXs/O2bVLuGKVQyMHbpN5mbeJGTp51Y5z1LnvU/eXt/G+jzmPvkw2S6KjnTJFO4YB5nd7STmRSDQmfFlgEax0nqu9KYuHQu9lfO0d6mJ/uBb7EwtZWqM3YMc5+lovh93nz3GF3KNCYuX0rsJTvdnQ30mKbyYEk8b/1qC5dElgnCqBi2j6w/sNY88U0kSQIuB9xwfVvaKB0PP/YMe3Z+dMMd0EbpeOxb3+etV17G63Fft1wRE4e+uxXnYP/0Chvl84uwb/8nNh3pQmY3l1b/hJkzxlD9Qf2Q21Qkz2RGVh3bfvUutT6QqkOse7gcef9WkqYtIb/rE159Yx+ugeSU2Hu6lNyMw2zfHD61vLLmFCkzmZHfwae/fJ3Kbhn21rPse4uZklHJJw3h17TtfYWPz3tB10HcjyeRHiNxyS7uRRaE0XDDzv7wKeQnTJ+zAIC9uz6hrubcsOtUzJhDIBDA5/HSUFtDMBROIUmhQEIidMXvQb8Pv99HxYw57N625bqy5ICPoFqLRrp+O5IuncS4NmrOd/e11tzU1jazZEI6MHSQRaWmYdbqKF/zNGUAkpGYmFZAR7LNQsfZKrpGmDGft8roJ6cS215NXU/fSu6z1LesoSg1FhoA2U1PV19vnr8Hj0+JSi0BIsgEYTSM6Krl3l3bSM0YM/B4OKnpY4jS6WhruUTJpAqamxqQCadQW8slgsEAybY0ZBkkZCaUT6P1UhNROh2p6WNoqL9wVXmhpgY6DBNJsyi42Hr15UY56Ccoq1Br+p+RUKtVEBz+EkAwECDoOMVn7x+gty9L5JAXgEBQRnW5wBuaniBxMBBAVqkv39ohaVCpIRj4ui5FCMKfthEFWf/pZP/j4cSaTJRMqhh0WfXJYwR8fopKJw26vKHuwnVBJruOcPj0TBbcP5vaP+ykySOjtJQwrUTms53nqGm4n5KyTA59dAGf2kbJ+ERaT27oWxmgvyknDzz21VTTNL+c3NhP2V3nBTRotQFA5uL5BuaUTSPjwEZqeyEq3oqnvQ2/zw9aPTqJ61prvppqLi2YQnH6HnbVeVEnTyHf2sSZc93D1pUgCKNjxPeRjfR+r2HJMjd9OiX3cGbzqxiWr+ahH03H2xNAo/VQv/ttNLKdY5s3Yn3kGzz7/V68agPBC1vYtL8NkOhsdxBXNpvcL9+kur0Nl3kKUwo/54MT+/l4SxLLV/85Tzk78UcZ8B37Pe981ojjy3fZkbyepc//lN5u0IbOseuNDZw+d5z6mYtZ+60SLh3+A5sPX7GLjv18vCWZ5atf4Bm3B40+SN22NzjYLn8Nd+oJgiCN9ugXBSUTWfrQo4SC1/TOSxJnq04Q8AfILy69fHNsH4VSyQfv/oFTxw4zFEVUHHHREr12O56ripdQG+PQeh10+64oV9ISbdET6LTjCUloYuLR+TtwuvtOUZU6YkxG6O7AdXWBSBojMboAXU43/Se0ktpIXKyS3k4H3sFuqpU0GGKj8Dtd+ET3lyB8bUY9yARBEL5u9/B3LQVB+FMhgkwQhIgngkwQhIgngkwQhIgngkwQhIinijXF3el9EARB+EpEi0wQhIgngkwQhIgngkwQhIgngkwQhIgngkwQhIh3VwdZsi2dVeueYdGy1RhjbuLqqhTLmJI8kqNGcWekWMaUFGDTj2KZgiCMirsyyGJNZhYtf5jlax4jPiGJzOxcHn3q20ydOQ+NdgTppMpn9U++xdwE5ejtlCqf1T/5Dgtso1imIAijYlRHy4ozW8jOLRz2NedOn8TR2THoMr3ewKRps8grmjAwR0A/hUJJcVkFuYUlHD24j2MH999wkEdBEP40jGqQOTs7SEpJw5aeOejyxvpaDu37dMj1s8bl4+7tJRgIoFIPPie43+cHGRKSUmi51DjifdPZJjCtLIvo3lqO7DtCff/4+pKOlJKplOdYUTmq2bPrGC39I1RLBjLKplOWqaXlmIvgVWOQ6bBNmEZ5Tizus3vZebQZH6Cw5FGe0MFxZwZzK8zU7tjGSYcIXEG4nUb11FIGtm/diLvn+iGe3T3dbN+6cdjxYcdPnMKY7Fw+2/EhVSeOXrXM5/XxxZ4dnDjyBRPKp2FLyxzhXknETf4uP//bp5hsNRA/YT1/8/MfMTNeAlTkPfYz/suDRVjUGjKW/Dl/++1J6AGkOKb+2c/5+2enkmSIZ8qTa5kS3ddKlGKZ/J2/568fzUcf0lLw2F/zl8tsKADluKX82Xe+z09/uJRssxa1mIRcEG67UR+IuT+wlj70jaumkBsq4K5lssQzZ9FyGuousH3LH8krmoDL6aD1UgMTJk8jNs4cLnOkQ2Yrs1n52FQuvfY8//sTBzLvcfqFX/DEqkL2/Xsl1a/9N34gh5AB1dEoXvxJBfmqgxzNWMa6ihZe/eH/ZEubDOpqXviPdeEix67gsZJqfvmjX3LYDYovQvyfv1jA2C2/pRZQWkMc/OHf8H7LYMPICoIw2m7LiPKN9bUc/mIPZRUzADj8xR4a62tvqozUjDGkZoxh3+5tWJNSmLXwgVvaFyl6HNmJDRw86uyLvm6OHq/jh/NzsSgqadFlMmflCmYWJhClshCnP4deAn1ONkmNxzjc0R+Y8sDw3NG5Odj0Rh78i5+xHEAyYTU3YFVALRBsruZEuwgxQfi63LapMQ7t+5SklLSBx7fKYk3CZIm/5fXlgBe/rEGr7Z9HUkKr1YDPRzNprPrv/52K6hf5vz87RFvSWv7p79JAgmAgePUUb1cIeP0EWr7gtX/7hP7uLznoxilmfxOEO+K23X7R3192o36xGxckXztPyUhXC8/+1nuMg6cTuW9RXrjvSzuWxbPSqDl0GFSZjMtwcGTnEVp8KhKyM4jt6wbznDlNQ8oUZmdpAAlD9jhsUeGFvccPcTpxMvfF99DW1kZbWxdujxuRY4JwZ9zWycpG0id2pWMH9zFp6ix0+uHvOm1va6H+wvmhXxBspKE9mUWrp/P+P37Kh798iTE/fYFf/Vs3vVFGAsd/y99vaoRgD7s/X8v3/uqfKHME6TnfQIc/XCWh+s38+o/F/MX//BVT2t1Irjo6O8Oni3LrVl58OYOfvvAiL7Y14zHE4tn1c3729jD7JAjCbSNNnzXvrro3QK3WMKF8KiVlFShVKs6cPI45IZF4ayK9Pd0c+HwX1SeP3bAcSWfBZvRyqbWb8ERvCqJMFgyeDjrcV/ZfKTHEJ2D0ttHcdf0lRrUxgUS9m5aWrutbXKpoEpLiwN5Ma4+4PCkId8pdF2T9DNFGpsyYgyQpMJut1Jyr5tjB/QQC4gROEISr3bVB1s9ksRIKBnE6Ou/0rgiCcJe6rX1ko8He0Xand0EQhLvcXfmlcUEQhJshgkwQhIgngkwQhIinctodd3ofBEEQvhLRIhMEIeKJIBMEIeKJIBMEIeKJIBMEIeLd9TfEDmdCeQVzF69g8ztvALBy7RMAvPf7Vwb9fdnqdezYupGjB/bfgb0VBOF2kYqKy+7qrygN58f/4+/YuvEdTh0/NKLXFxSXsXjFav7xb/7r9QslA9Yx8fgb6nD4RnMvJfSJYzH562nsHNWCBUHoE9GnlpvfeWPEIQZw6vihgdbbdZRjmLJqBYVxo10lSmwz1jKvxHRFZUtorTnkpMUhDbOmIAgjE9GnltcyGI08+e0fYTAaAbB3tPPGy7+gt7fnDu/ZFZTpVDy2jopME9LpP/Cvvz+MGABIEL6aiG6R9feB9cseV8CFc6epPHKQyiMHaayvJTM7b9h1hqOx5FA0dQ6Ty3KIUwPaRMYUjiFmoBkloUvJZ2yKoa9lpcU0dhKTZsyieKx58E+JYD37f/u/+c9ttX3jpN2YFJNBdroJjXkcxffNpbx0DEblFcvS4tBY8iidPplUQ3hPNPE5FFbMoqw0F0vfyLaSIZXsgnT6J4NSWrIBLZbsYlLjLrcNJX0KY3Nt6ERzUYgQER1k18ovKaWodNJVP8WTym+hJAl97kq+8dh8bFoZdfpiHl47HYIx5Cx4mMkZ/SliomjJKgotIWTJwNgHvsvq2ZloZA22ec/yUIV1VI5LYZvG4kee45EHJxOvjSKp4nHWr56IUQovW/jAwyxbOZ1Eo4aGHtDnPsT6J5eSHafDOHYRa775CHkxErJXInnmeuZPiEWSEpj04CogQFTOQpbOzOkLXglj8TIWTrASitjeU+FPTUQHWf/VyISkFNY+/Z0hX/fcD35KfELSVesMS2Fj0txsmt7/Dz7atYvP//gmldpyCNRw6rRMZmEGSkCKG0927HmqT7tRJM9kRlYd2157h717trH13UNoSm8lRAcnu6vY8err7Ni+hfd/tx372GkUmsNNJkWcTM2G/2Dr1j2gsFE+vwj79t+waetWdr3zMjuaspkxYwzKwEX2f3gC08zFFJUvosj3KbFSkEuHj9GbXcoYDSDFkJ1roaGyCu+o7b0g3F73RB/ZpKkz8LrdeDxu6jlPwB8eRValVuOy2wEoq5jOR5s2jKxAXTpJ8VHopq5jVQWARHRsDJYCiS3HTxJcNZ4U5QVcBfkYL+zmgg+iUtMwa3WUr3maMgDJSExM66gdoxzw4O0boVvubqK9ZxZx5vDnUMhex0VnuPkk6dJJjGuj5nx336Qvbmprm1kyIR2jVIOjbht7Gn7C8oUu9r70BU4ZaD3Iqc7vkJ+r41xtAWNNNRw9K2JMiBwRHWQr1z7BP/zlCxSVTrrqeVffaLIxcWbIDD+XnjmWjzZtGFhnWEE/waCdszveo7K7f763EL7eAKHQEc761pGTZsE1Loa6z87hBxSBAEHHKT57/wC9A6vcpjBQ6NBqfLi9XPcOykE/QVmFWtP/jIRarYKgPzzngG4MY5N6abVHk5Qag9TqQJYdnDrSQFlRISZtHrF1+6kVd4oIESSiTy1HV9/c5RLgPUdNg4nsgjg8TgcupwO3z4svAISaOVXlJrNsDtmGM1RdCLf+fDXVNJkKyI1143I6cDl78fm8/UX3FXzrpCgTcToJUBBbXE5GoIaaS4NcLvCeo6bBTG5ZJhoAtY2S8Ym0njlDj6wlY+4Sks6+y1sbjxIzaxn5xvB8n+6qA1yMn8isQhMXK8+Jqe2EiKJMSEz5qzu9E7eqtfkSne2txMaZaG1uGvhpvtRIR1sr9va2q54/W31yYJ3ryAriC2dTbO3kVFUtjfVOEqavYm5FMTkTZjIpX0VjZS09MnhcevLvn4G+8gM+PesI55SnkUZnCpOXr6CssIiiaTPIUdVyst6FlFDM5IkJOI+fxJ69mmefWsXELAtR8TmUVEwjuecgp5uHvglDYR1PeV4S5vypTJw8m/JxISo3beB4ux/JOp5Jmb2cPFTT1xL00FrvxHrfKuZPm0TxtMmYmrbywfaz+FMXs2K6hz3v7aWtsx67eS7zCnqormrBH7TjtsxlRnoNn350EqeYKF2IIBF9Z39OfhFnqypHbR1JE4tJ78PhcBP+P1YSFWdBT9cVz92AUkeMyQjdHbg8fS0mSUu0RU+g045n0EIUaPQG1MrrlwTcXQRy1vKtWe289fIu3MYofM4u/Dd81yTUxji0XgfdvpG8xQoS5j3PMu0mfrvlwohvDRGEu0FE95EtW71uxF9RUigU5BWVDv0VJUD2Obn6W0RBPI5WPDezU0E3rnb3NQV76W4fpr9MMpMzewk5MdeefoZo+eIPfDlQjp8ex0hP+mT8XfYRnSIqY5KxpU9gerGX46+N/P42QbhbRHSQ7di6kcUrVuP3h0PiRl8aX7xiNTu2brwDe3oDcjsnt7zGySEWK1IbqatzMaKG1U2TiMmezuR8ifN/fIOD7RHbQBf+hEX0qaUgCAKIq5aCINwDRJAJghDxRJAJghDxRJAJghDxRJAJghDxRJAJghDxRJAJghDxRJAJghDx7skgyxqXR8H4CajUEf3FBUEQRuieCzKtNopV657mgYfXkZY59ibXVhObloVlNAerl3RYMjKI09z4pbdMYcSaFHvH3kyFMRlrzCDfeL+hK+v7NtT97dRX56jNpGQmEjWafzJRCaSmWVCPXpH3vHsiyLLG5fHcD37KmOxcklLTkKTwX5UtbQzmeCvrv/k80+csuHFByjFUrF5Cjn4Ud05TwMxH5pJ222pawlDyANOz1IzKd82kaApWv8D6eekjfL2RgkULyFDfwrg/V9b3V617pQatuq+Sb/YYbtrlOldmzGXZ/EJ0o1i6Om8JK2Zm3aF/Tgl98Vqe/eYiUm742aREHaW+K0Lknjj3WrDsIWJjTTz8+LPI8uV/52mz5zF11lwkSSIlNZ3Ko4dw2juHLEeKsxFPC2cco/f1U0WSDbOriebbNeKqMo2yQg/H32ofnSCTe7l4YAtdzsaRbd52H7meL9nccfNbv7K+v1rdS5jve44lvMXvdrch3+Qx3LS+Ov/j6x2YZiRC23Fco/YnoyQh2UrXpYY7NLiljKd2P7tcDlpuMAyKFD+bNQ/Ch7/ZTucd/sb2PRFkH2/awOr1zyBJEpIkEfD78fv96PT6gdbZF5/tHDbEAFTJNmI7ztPS37hQmUgrGo/N6Ket+jDn2y4PxaMwZpBXlIWh9zyn6iQSotqobe5FvmpZDRd0iWja9tHZV6bGMo68vFR0nnqqj57DGQSlOYs05SU69IXkJTioOniO7hH9YUgYxk/HXLONz3x95aiaaFGOoyDbhLvmAFVNMvH5Exlr9nLxyCEae/oKVhpJKSwh3dhL3bELKJJ0dJ5vwq0wYYruxVEfBKWFtEwVLY2QUVyAhUaqDp3B2f8HLhnJq7BSt3Mr4ZxWYkwvZlxmHHLbKSqrWsLPD1GPV9b3dXWviWfM+EKSdG6aKg9R5+jf6NXbOFzVSVxmEaV58YRqM8jLlqi6ELx8DOEtEZNZwrj0GIItJzl5ujW8X8MdnzaBrKJ8ErRdXDxxjMaugYMeqHNQkZhspvNC48BYdcq4LPIKMokOXOLc0So6Bj7AlBjSisnLjMF94TANUjJRHWdp7ZWvXlZbjS5BS8eXbX1lajFll5CTosfTcIyTNXaCKInLzELZ0oour4R451GO1biu+CDTYhlXQlZiFL11R6mqdw2Mr3fd+9NXB21terKLEqnce4AYSzSeztq+7YxF1dKIMmsCmbEeGk4cprFLRmXKYtzkQkxyDSlF45BOn7niWL9+d0Or8CvRarWEQpdPayqPHuJXP/9fvPRPf8uODzcNPO/zetEboocpSYEl2Yq7uQGPDJKxkAXPPsd9aUoCqjHMfPwpyq19s1dmLuSRZx5krEFGnbmEVU+tpzxTNciyxSybkYLjUgNBJGJLHmXtmgrigm4UY5fz0MIsQEli+YPMXvIQ88sSUfu9eEf66dbfGjvYjoySxPKVLFj+CAsn24gyFzP30XUsWfUI5TY9Mbn3s2JxQfiTKyqL+578Lgtyo5HVWcxc/y2WTR+DElAkT2X+nEKiFeHHC5at4v4HZ5Gi02Gbvp5FZTGXN2+bTp7nS453yOHZl5Z+j7WLc9D6QsSVzKbAJA1Tj5fru1e+pu5NE1n6zHpKzEE8inHM/cZS0lQMug0kPaa0ErKs3bhlK/FGzVXHgBRDzgPf45F5Gaj8KlLnPcdD0xKQGOb4FMlUrH+C8vgAbkUmFQvKLs9lekWdo0gkMb6b1iY3MhLR+StZ98QibEo/qvTFrFk3E4sEoCNt7jf5xgMFGGQN6fOf5tE1s0lTXr8sbd46piR10NIUBMlMwapvs3yShaBHQeaSJ5mVqQKljdKlDzD3gQcptmrxe91XhJgC64xnWDktgZBbgW3mEoripCHfH0XyVOYvWsaCpZOJ1/j7yl5IjlERfvzAGpatWc2EBBXKlJk89PgSUpSgi88gLyeB3h4Zc0IMt9KzMJoiukWWk1fAikcfR6EIn8wH/H62b9nIE9/5IQZDNG/8+kUu1taQlpnFjPmLuW/eIra9/y5HD+wfpDQdiUnRdBxpJiRFU3D/MhKqX+PNXY0EUOMw/QUVBVYO7Itl1vJiOj54kW1n3ciK86i/8wjKSz3ImpxBlq1F3dSFFDOZ+TM1HHrlNSpdMlKVmvQ1WSC1kpgUh6J1Ix98eJ6Rf6hJGMZPw3zhEz7zAZKOxEQDXVWv8/7nLYSip5NaMAH7nt+yr9mPpiyNvNwoAmjIXLCK3NY/8sb7p/HICuo1P+R+ZRPdsoQ+JRld2wGagn2PXafYs2EX7X4lWaYJTIvqu2ohGcmbkkDdro/wIWEofpB5ttNs+u1HXPIB+wn3Va0Zoh539wzU99V1H0vJ/XNR73+ZjUecyFIlyqz1XAxIGEoG2QZQd6GdQFEz+z7ZSktIQj95yeVjKF7BnKRTbHxlGy1+UHWaeXZWMfLe7eiGOr6oDNIsbZz8w14qe2SODVXn+lSshjYqW0NIhlLmLU7h3JsvsbfJD+oOYr8/j3GWzzgYu4RFhS188uv3uOCWUVxQ88RDKlp6ZdRjr1+WskrDQScYJ61gqvpz3nrzIF2yxFlVDsszLUhtNqyxCtq3/IEdF64dsDMKW6aFjmOvcPhID/LBvv0etO4k9DnJxCha2P7uJuq9IBmmYtW3cqI1iBRlw6pv5tgbr3PYHgSNk4QfTSctVuKLmvPYAyW07/6QTy/d+XHRIzrItFG6gRAD8Pv9IMtEG42oVGqiY2LwuHsHlkuShN5gGLwwZQqJlk5amwJI+okUZLRwfHMj4ZH0Q/h8ARRKJZpxU8juOcAb5/o+BdUJmPVtnGkODrGslfdqQ0RPmUCaRkVw8TqyAFQWTL6DoLCRaG7h5Oaaa0JMwlj0APOKLSgI0nrgbfacvWKsWmUqZYVejr/d1zemsJFoaefC5laCgMJqxdhxhjMtfkBJfHwcrtYW0ORTnNfN8V+fwRPeScwWA51VTYCCxOR4nJcaBh7bz2ygww9I0ZhNEp1Vjr7qmk6et69vTIompySD1gNvh/9J+o9AXzhkPV5Z3ygzL9d9dBF5mRpUwWUsywFQEWfxcVAyDLoNkNDZUtC17aMjxNXHIOnJKcmk/fAGWvo6nGSfj6BCMfzxuU9w6Hg5C595GvMnG/n8VHt41Nxr6lyZbMNsb6TaL6EvmUhq65d83NS3oZAPf0DBvnYNeXML6Tn8IrXucLtJZbWia6+kIaglr2ywZSdBMpJTNBa1Ksich/PCy8wWfEfdKFJsmFoP83HtYKMOuzmz/yjjl3+PVfEfsn3nCezBoeouXAftx97lYl9RihQbJnsjzX5QZNgwdZ6npv+0XgaZAAE/SPpUrLpWjrbf+RCDCA+y6srj9HR3k5aZxZQZc9Dp9YyfWM6rv/oXomOM9Hb3kJWT1/fao1SdOEb9hfODliXF2IiXmjnjlJESTBg8nTj6/04kC7YUFa++1IJ1roVA2xcDfViKpFTMriZOehVYEwZZ1tUESBhj9XQe28DWPa19pwEyctCPFDcLi9xMtfPa80mZ3ppP2dmoRELG133lgNsShqLpl1sGgBSXEi7HJQMS0cnJqNp24ZABSU9ikoGOgy0ozIXEBVo53t87rUwhKd5Ja5MfJDOJVpm2k3aQTCRaQ7RXOsP7q0wl0dxOc1Owr2+svzUGSHHERrtxXtNJIsUMXo8dn7UjxeReru8r6z4pFn3HET7auJP+6wdyKAhS4qDbACVJKfHYLzWEw0YyXXEMScRGe3B2DuwAsempqNp2DH98cg81W3/J62dmsmjFsywM/T8+rPZeU+cSxuREaD0RfhxnxGvvGJjUWDJlkKhqAYWZeLOfjkN920FJQoqVruaGIZd1NzeCFItR38apTW/zRf+ovbKM1+vDNCMRufUYXYN2Qcj0nt3MGy9XMXn5ah5eFuKljc7B666/rir7JtBBIiYpEbn1OHZZwpSchNx6fGA76sxsElx17O+RUWSnYu5sZJg5c75WEd1HFgj4uXDuNMcPD4xqz9wly1n4wEomlk9n/XPPo1SFs7rm7BnOVlXi9bgHLUuZYiO2vZGWIMjdLtxRViwGCVBiLruf8dJBQCYQCKKNMaGVAHUixdOL0LY1DrIsiZIrlrkcXegTE1F5PXg9HkKhEH5/qK+Tu3HQK0TBXidOeycOu53eKy9hKW1MLPL29eXbnLsAAAz1SURBVI2Fhctp6itHRWKKhc6mhnAnr8JGkqWDlqYAst9PSBtLTFT43q34ibPIiWqhpTMEKhsJpvZw/0z/474p5xQWGxbfJZp7ZRQp08j19vWNAcjddLv1mBMM4Unv1Hp06qHr8dAZ/1X1fVXdu+x0G5KwqLx4PR68wRCy3z/kNpCMWMxKujq7wnVx5THIXXT16jBbo5EAZfwUZpdKnNhfPeTxHeqOJq0wG6MUpLvmMw6cDWFOiB6kzvs6+i+F398eVw9aSyJ6CVBaKV5YjuLIHpD9BIJRGOOikAB1wmTK83V0NHVcvyxxMpPzdXQ0tYHswNUdTXyCGp/Hg9cTJBTyXd5uU9PluRXUVrKKswEJQ+Z4MmIkQq5zHPj8NCFL4tB1p7KRYGobqIP+su1NjeHHSRaCvnD4Sfps7puXTdv+fbSGINoaj8LVQc+gYfr1i+gWWb8Vjz4+cHUSIDUz67rXzF+6grpzp+nqcg1SgoRGp0NjTcOm3c+5rsPsPzyR+595ngJ3FHr/aXa/9Qkg46j8kouTlrDumVJcXgcdfg8dlxqRrlnW5XXQ7vfQ0dSAhEzP0W0cK1jLum9PpNOjRe89zCu/20t8ipXe5l2MfCpfCX3RfVhqPmHPwAes4upyFFaS4t20fRG+iiqZU4kPNnPKJSOHjnG8toKZz36XfKeHrjY/vrZGmoPh0wpLTxNfekCRfPkxgDolhej24zSGoimsSKR+18eXT4VlB5W7D5C38rs8Nt6Jwqik/sNfs+Ps4PXYHJTQ99W3my8GHvfX/d6DxSx97gcUtLvRGrycfOdVDrUNtY0e2lp8TF7wHGvyjvLOl6bL+y27OPXplxQ+9F0eK+lBqw9Qs+119jYGUdgGPz6Q0KbN5+GZ83B2azEZzvPrX3WgL3nk6jqXNERFabDYMtAcOEX38R2cKHmUdd8qxa2NJnB2C5t2N4AsUX24hgnz/4xvjHfgdbUQ8LaEw0PuuGqZz9WC39s6EMInd+5n3Orv8URxG56oaLxHf897X2rCFxg+v/yBrM5fwrIHFPzz8fNI2kymPT6PqY5uNGY99dt3IMnOQetuV+/VdYAi6XLZChuJ1l56tct47NkgROvpOvwmHxwNtx57Wy7hv28Jax4voHrL2xy5w3M93BNj9k+fs4DpcxbyxWc78fl8zJi3CAifTtbVnGP2omU0N9Sz4Xf/QcA/RFtY0mI0R+HtdA5M8qGOjseo7MHhvGYqOJWBWKOCXscg07INt6x/ermQC4fLM7Lp5a4rIpUZj5bT+PZ71Nzy5W4VurgYFD12em48r9xVFLZFPFhax/vvV19/YUIdTVysFp+z46oW5KD1eGV9c33dK3Qm4gwhejqdeEM32oYavTkWRU8n3d5BalVtxBSrpNfuwDvCKaKUOhMxWi8uZy9BxeB1LmljidN6cLi8fa00NQZLHMqezstTAfaXpzdhVHTj7PZfd7/fcMvC0wtGI3d30DX4XIKg0BGtD9Dd7b+8TlwUfqcDd+CKEod4fwZlqODh72Rx7J/f5KLBhLK347ppBVUGC0ZlN06X99b+lkfRPRFkAHFmC47ODnT6aJ7/Lz8DYOObr3H65HH0hmi8HjfBYKRPdCahL1nDAv12Nu0bpRtgb2rz0RSsXIl+9+scvIUbYCPTHa7zO0SZvYpnZnfw1m/6+lnvcvdMkF2pZFIF2qgojh3Yj9d7U7NS3vWUWh0Kvxv/HfkIVKKJUhLw+O74J/DX6c7W+Z0RlbuYueaTbN13MSLe63syyARB+NMS0VctBUEQQASZIAj3ABFkgiBEPBFkgiBEPBFkgiBEPBFkgiBEPBFkgiBEPBFkgiBEvIj+0viE8grmLl7B5nfeAGDl2icAeO/3rwz6+7LV69ixdeMQAysKghCpIvrO/h//j79j68Z3OHX80IheX1BcxuIVq/nHv/mvt3nPBEH4OkV0i2zzO29wtqpyxK8/dfwQfv/IB8wRBCEyRHSQXctgNPLkt3+EwWgEwN7Rzhsv/4Le3p47vGeCINxOyoTElL+60ztxq579/gt8vnPbwO8F40sJBoO0NjfR2txEl9MBkoK2lktDrjNAiiUlLxnJKZFUWkF+hhFvextutY28SeVkJSjoarVfnuFIE09mcRl5Y5NQdbfi8IQAiei0QqySHTlxAiUlucQrnbTbPcgoiRtTTIKyHadbBtSYssZjlVtxDTdAR/9+uZQkT5hCflY8OFtweeXwstwkpC41trJy0lQdtDp9oLGSOX4i48YkoPF24uwNgBRNUt44YrxtdPkAVTwZ+Sm4iSfbGqLT2bcTkp6EcdlEuzvouTMTKwrCTbunWmT5JaWkZ4696rkYk2lkfWjKNCYuX0pcs4NuezP+lFlMKiikNmgk1NaBYdxsCswv8eonDciGfOY/sZz4xsOcdyUz4/ESLG/8mkPtSpKnrGJ2XCPOrg5aus1MWDsR0yv/zO4GLZkzVpN7+jwXO7qRJT1Zs1eTeeQUF48MkxjKNCauWEmyo52W+gs4DSU8ODWfnS+9zsneNCYun4/+kp9QVz0X2oNgKGDhUw+R0naM845o7nt8LgUf/TsfVPYg2eaxvDSK1/9wCG3FGham7OM3XWnc99B4fL/YwAU/SDETmbN8DMd/UUXLV3w/BOHrEtFB1n81MiEphXn3r0AeYti7537wU977/Su0tzYPrDOU1r2v8PE5D4q0EE89nkrLL/+dA/YQulYz3ywZS4gmkqYuIuPie7y6+Qw+JM6FvsfyUhuHtjWHC2n5lD9uPosPHQ7zf6MoMxYavsK4aHIv57a8zM6LAZD20/3kjyktsXByH6AwIZ/5ZzZ82YmMgqQFi8np3Mpv3zpIjwwHGr7BU/PnkFb1Ry5+uonT31zDzFIN6lIvB18/Ssh5iarep8nP1nChyo8hLx9T3Recv7eGcRPucREdZP0mTZ2B1+3G43FTz3kC/nALR6VW47LbASirmM5HmzYMX5DspscVHstY7unGG+ymuzs8rJyv101QpQZ0JNsS0Ohnsmz9fQBIxjii2+KAZkDG2+3qm/7MT6/bh1KtBr5KkPnx9Q/hLHfR2tpDuSU+/Huog6bavllwJB3JKWY6z56lty/TPefP0/7gJFJiJC7aL7B3Rx1Pr7mfrl3/yjG7DLRQeaydb4wvQFt9npxxFi4eHGQYa0G4i0V0kK1c+wT/8JcvUFQ66arnXY5OAGLizJAZfi49cywfbdowsM6tCxIIBnBVbWXbke6+52RCvhtdUAhP03blJCm3RkFUlIZArwe4ZuZ0OUggGEKl1gw8JWnUqAgQCADoSM1Nwd3cicGWTrTUgkuW6Tp+kOapJeRYtGSZajh6TsSYEFnEnf03zUvdmXpi84qJ8ThwOR243F583htN8BfA7fZjjE9ECagTx5MVP8Lql3TEmPVIgMJUyvgsP/VnG4fYt4vEFk7BpgVQk1hWiqW5mgvdMpqxi5iZfJptr7xDVex85hTHIAFybyUnaq0ULigmpu4YdaKTX4gwEd0i6+/vqjxy4Krn3X2zi+t0+iHXuVUWSabj4LtsT1zHA3/2Y7rsPrQGH6c2/Ib9TcOt6af26FGmP/wYz2Q48ThOUnOxF+tINiqpSZj+NE/OUaKJMdB1+C22nveD8toXyrgObmB70nqWPf8CHq8GXfAcu9/aQ6cqg9kLx9Gy819p9Lhp3XqKxx5cRu7531Hd7ePCoTPMeaqQ+tfPc5fMuSoIIxbRd/bn5Bfd1A2xt7rOUMJTlkGP3T7iacYUUSZidT5c9p6BCVYVGgM67SCtM7+bnkAeD/xoLvZXXuTL3hg0Pgc9vhu/ZZLGiFHro6vLO6KZfxRJi3lsjZbtL26kIdInmxL+5ER0i2zZ6nUj/oqSQqEgr6h0VL+iFHLb6Rx84vKh1/HYsV/V7y8RWzCfmXmxXNt7Fmray6a9/b/J+LvtjPSsT/Z14RpJV5cyFmt6JvlzSvEe+g2NIsSECBTRQbZj60YWr1g98LWjG31pfPGK1ezYuvEO7OlwZOxHN7Lx6BCLlem01NTS7b09DWcpbhwT7ytCOvM2m/e2/snM2yjcWyL61FIQBAHEVUtBEO4BIsgEQYh4IsgEQYh4IsgEQYh4IsgEQYh4IsgEQYh4IsgEQYh4IsgEQYh4IsgEQYh4IsgEQYh4IsgEQYh4IsgEQYh4IsgEQYh4IsgEQYh4IsgEQYh4IsgEQYh4IsgEQYh4IsgEQYh4IsgEQYh4IsgEQYh4IsgEQYh4IsgEQYh4IsgEQYh4IsgEQYh4IsgEQYh4IsgEQYh4IsgEQYh4IsgEQYh4IsgEQYh4IsgEQYh4IsgEQYh4IsgEQYh4IsgEQYh4IsgEQYh4IsgEQYh4IsgEQYh4IsgEQYh4IsgEQYh4IsgEQYh4IsgEQYh4IsgEQYh4IsgEQYh4IsgEQYh4IsgEQYh4/x9iBzmfP4muZwAAAABJRU5ErkJggg==;" vertex="1" parent="1">
          <mxGeometry x="-460" y="220" width="238.44" height="120" as="geometry" />
        </mxCell>
        <mxCell id="5HhIV1nGv7MH1atSg8IA-17" style="edgeStyle=orthogonalEdgeStyle;rounded=0;orthogonalLoop=1;jettySize=auto;html=1;" edge="1" parent="1">
          <mxGeometry relative="1" as="geometry">
            <mxPoint x="-245" y="283.78" as="sourcePoint" />
            <mxPoint x="-150" y="280" as="targetPoint" />
            <Array as="points">
              <mxPoint x="-245" y="280" />
            </Array>
          </mxGeometry>
        </mxCell>
        <mxCell id="5HhIV1nGv7MH1atSg8IA-13" value="" style="shape=image;verticalLabelPosition=bottom;labelBackgroundColor=default;verticalAlign=top;aspect=fixed;imageAspect=0;image=data:image/png,iVBORw0KGgoAAAANSUhEUgAAAJQAAAAYCAYAAAAcTtR3AAAABHNCSVQICAgIfAhkiAAAABl0RVh0U29mdHdhcmUAZ25vbWUtc2NyZWVuc2hvdO8Dvz4AAAAudEVYdENyZWF0aW9uIFRpbWUARnJpIDA0IEp1bCAyMDI1IDA4OjM0OjI1IFBNIENFU1SHiakZAAAHnklEQVRoge2ae1BU1x3HP3d3YRfYlTcLEkEQASvgAzACIomPYquxGmgmtlFq/0jGNLEmxkdmErWxjpJpWqdBjLGJmZg+/nBimumo0YhKTWVU3mYi1LcYHsvCLizLvm//ABGaRV6rpp37mdmZcx/n+/udc79zzrnnrpCVM19EQsJDyB51AhL/X0iGkvAokqEkPIpkKAmPIhlqJAj+xExLJEL1X2WJPsZkKGVAONM3HiJ1yzHSth4lbetRUrccY9r6v+KlDvJUjvdHCCT3zYMceDkdrwcdSzGF/PUvMC9MPrA8Srz8AtB49x48zHY8QBRjqRyelY/p9iUEhAHnRUS0mXk0HN8/puSGhWjkwqH3MFi+xvHgo3kQL9LX7GZ+xfNsL7H9D7djIKM2lCosGgQZNkOL2+typS/KgHCshqbBRWTBTEkPo7WqlcicbOKVTVwoOccNIYY581LRdl/mzKladA4AAZ/xKWSmxROqMHD57GmqWuwACKILhxNEQBacyKwwPeXNIWTnJBNkrqP0ZDUtbp+SkvDk2aTHhyJrruL0v65gdAE+kczImEms2syNqnNU3DIznM06n/HTyUqPw7/7Cl+drqLJ5j7O389eJyQhg5RIP4JN2TzpaOFU6dcD2gHgEzmdzNRY1OYbVJ6r5FaXCMgITkxHq6+gOWQOOclBmOtKOVmtwz6MHB808qiJsdtGU9EndCLRS9ainjDF7c8vMgFd5TEcpvbBRRTTWL3jRRYlpzDB2446NZ/nsiYSmzmbCFEkeuFKfuRfzRfVbcgTVrJ9XQa+He3YwnNYtSKO21+e51u7ghkF2/l5UBknao3Ipxewc80PSU6JxtsMsbmrWBxYwxdVelz9YwvjSH+hkC1PhdHR2IF65gKmdpRR0T2Tlwo3s1CjRyfGkFuwgqltZZTdMoP8MbJ+kkRnyXFqTZH3ykbwn7WGXa/OQXanAfvEJfxykZLKM/V08N04F8+UEp2xlHlpMfi7TDiVcKH8Wl87jtV2EDDrRd5+fQGa1lbEmFxWr5hKW1kZN80KZhTsYE1uEilRSszEkrvqxwTWHKdK7xqspx8aIx6h5Co18at2cufkR0OLq9RMeb6I+o8347SYBr3vxmc7eLfCjCLRyZ634ri69g0+bXKiuanlwyeTCBb+TUvdJ7z+iohLBBTVqIrWk5Go4EKFW0UO7yimshs0jRF8uCCZEFk9Tf36Wz5pGQVz2/jLurc4ors7JsiZ/IuVZDQe5KXCk7SLcLj+NYpW5pF0bh+1g3bKJJY/N43Le1+hqLIbZOdxFm5g4aQjfCy6iwPfHPkb5+dm8YPT77OnxAb9V07yOJavzKDx4Mvs+tKAyGHqNhRRkDeV0n11Pfdc/4zfFlfRjZrGiA9YkBwC9feZDR4SIzbU+OxncdmtOK1mOm/UgMvZc0EmA4QBxy67FdFhZXz2s9w+8Sf3gmIXba1WAFxGIyaHEX1bj4alw4TNS4lSAPAl5ollLJubRJhKQVCAL1d9BbeSrq522nqnG0tHJxaFd6/GPdQJkwm/Xc6F1n6TmaAmIU5Lw8VqDL2nOytrubl2PgkhMmr1g3SKOoHJkb5olm1k21IAgaCwIG6HyFAHuYkzBII6njhtAxerjL3Tn4mqmpusW5AA1AEiZkMbPU200tFpxUvpPbjgQ2REhlJHJSH30dDdfJ3Q9MV0fVsPvQvy7uZriE47fpEJiCKASFj6U5gbryL30aCOSsJ069KoE52w/A3efPwyRe9s5WKrlp+9s4soBBjW6ua7OG0ORG8lqv4Soh2rzYW3UtmnLKiUeGPHZr1PHIcVu6OZsk+KOWG4q+XEYrQjPuEmzhCIDit20Rulsi8LlEpvsNmGqvrIGdG2gTIwgtC0xWhnLyd0xiLCM/MJz8wjPDMP/8mzGDcpDW1GXu+5fEJmLkKb8TShaYtRBkaMKdGY+GgMVSVUtNhQhE0m2t/96HQ/5BHpLM1NIlAAc20lVyLmsiRFgwAI6seAbqrL69Fm5TLFF0BJXO5coq6XU2HscYPY83wHls3VXKzT8nhWKF06HTqdjs5uC2a7+zgTgmQgWrHYwE8zju+0pFdvTm4iPWlMYlHOBK6Vu53fv1eMadtgAKLIaEeL4VBz5itW/Oo37E414Oy6yh29fcTJh2X+lNXPGDD98xIlTUfY80Esm18tZr/RAL4uag5s54/Hitk3cRMb9+6l06xinL2GA29/ToML4A4NrRHk5mfx5z9c7yv/4/elHN2zn+iNGyh+V0ez1Q9/yyl+t+0QVwaLc7aN8rO1PLNqJ7uz6/n1a7v78pSLOo4Wv0/Mpg28t9eEWaXBUfMRhZ/fge/5LpUwkr+vBE+bT+zTmxDvrpN6EUUBwzdncTlsBCXPQxAGSgoyOdc+LURffXJMycr9QtCqreiaO0f3iiz3I3ick7Z2yz3ry1QEhWqw6XWY+m0tyFSBhPhaaG3rHvB2KPgEE6mx0thiwtWv3NMjCjRh4QTQTmNL18D9JLdxBJSB4YQqjDTqzAzsVQAZqsBg/Cx69N2P/g1uOIzIUBISQyF9y5PwKJKhJDyKZCgJjyIZSsKjSIaS8CgKY7th6LskJIaJNEJJeJT/ANuQBo9pr1/fAAAAAElFTkSuQmCC;" vertex="1" parent="1">
          <mxGeometry x="-480" y="203.78" width="100" height="16.22" as="geometry" />
        </mxCell>
        <mxCell id="5HhIV1nGv7MH1atSg8IA-14" value="&amp;nbsp;" style="text;whiteSpace=wrap;html=1;" vertex="1" parent="1">
          <mxGeometry x="-50" y="180" width="40" height="40" as="geometry" />
        </mxCell>
        <mxCell id="5HhIV1nGv7MH1atSg8IA-15" value="" style="shape=image;verticalLabelPosition=bottom;labelBackgroundColor=default;verticalAlign=top;aspect=fixed;imageAspect=0;image=data:image/png,iVBORw0KGgoAAAANSUhEUgAAAUcAAABUCAYAAAARfPXqAAAABHNCSVQICAgIfAhkiAAAABl0RVh0U29mdHdhcmUAZ25vbWUtc2NyZWVuc2hvdO8Dvz4AAAAudEVYdENyZWF0aW9uIFRpbWUARnJpIDA0IEp1bCAyMDI1IDA4OjM3OjA0IFBNIENFU1Tjmb+XAAAgAElEQVR4nO2de1hTV7r/PxoSIIEYkEQjAUEYqHiFEdEqpyBWWq0eL71anXasrZ2OOtZOx/Yc63l+tudX7YxOO3Za7VirU7Vqrc6IWrFatHjHwXpBiwOCXAwkSiAQhITY80cQgkQFBIF2fZ7HR81eWfvde2e9+12399uld+/ePyIQCASCBnRtbwMEAoGgIyKco0AgELhAOEeBQCBwgXCOAoFA4II7O0fPKKaP/xNrZ61j46yPmK2T3iezmolsJAtf+IAZmvY1QzriWf759XOMuIfb1Hfem3y9bBg+92SIlf/9WyErhrf2XFsf1OP+i9Apjj+9At3vUFaJ15AZBE10lA0c2Mvp2I+MeaOQ/bOs3KkGgaA9cbvTwd4DniDB8yzLN3xJlhVsVtv9sqsOadBc/hZnY8Xaj/nX7QrZr3I6O52yyvtpWWNsRdkcToGSe7hNJd9ncLjIQIXLo2pmfvYq0cl/ZNYm023rCHnYxHirN08f7dJyQ1xyCeOu/4+RQNTjnuaO7wC//8BPB6XffYDZXMONG9VOB7uwd70389438ew/erCmuJXNFAhagTs4Ryl+3t2g9AcuVFRy/91iM7D/QNKBH9rbCsg+xnvv3VsVxQd28M491WDj2UnVZO/y4/y9mXJPdJV3Q2IzUFVi4YarAgUKtl4q5dmJNjasklLtqoxA0I50abzOUcp/jF3NywG3FrVwZNfv+LDABt2n8qeJIezb/DZ7akOcgXEfMF/+JS/uPoSNAcyePhdV5peU9hrDoO7doPwsm/Z+zP5SJzcrCSEh9gkmBIWgltgoLc3muyOr2aQvQx72Bqvj+za22LSTN7d8yWUASQwLZr7CIABK2bf9d6wxNCwu14zj5dgxDPRTQeUVLmRuZOWJs5TVXetHTK/Zyw6ieLSXH3K7nqOpf2FV7tUm30Rp9JNsXBKNL4D1HIsmrOOw02X2mDybtVNMrDvsQWJ8CD29rpOVtIVFH2VyM/4LeeV1PplSOy7w/Vc8/tox6mPDQOZtmMP4nree2cahtxfxPwdq6j5xf8DE/veq2fBiTz5uFJH5ooh8lO4B/sikcMNylcqsPRRlXXG6YX3xi4zFS+2HhAqqrxzFcDINawMPVxs5nv2AK3kN3Zok9FcED9I1ukfWf68l78yVBp+FTCxi9yR3nnvOh2ONviEQtC8uIkcb3+1+ju+Q8suED5gjWceLe4+3IHKUEREawoodb/LhdT8eSXyL6Q/GcHT3IRy9Xy2PjH2Npz1/YFPy25wst6HuEc9wbznoy6i8uISpF+/SrbYfZ+mq444xx+lPNDbBcyRzxk5EnbuOd5J/wOY3jlkJc5l/fRH/c1ZfV0wRMAD17iW8sreS0MFvsTD2CU7mf8y/7E27UlvaFp5I2IJ0xLNsXeg6GJf1DGeEdTWzn/gUoifz4eLJPJPyLh9dcBzP/uiPJHzkGHNc3ujFlMf7z77O+03oVqsfqEZdIeO8i65q18BH6RkA146sprwcJN7+yOVOBdzC0MQ/intxCkX7sqmR+NMt8lF6Dakg78QF1xHgLdiz/k5WFnQNfJbgAWUU7tpJ1W3KFlySYfapJrIHHBNda0EHo01nq3PP/4OjFTaw6/kuKw+6P0Dvmwc1Y3i0VyX7D3zMHn0eVyv0XMjeyJqL+jtV2Sy6BY2kL2f5KvUQWRVXuZy7kc8vlvGLviPr7QCs+hQ26csAG1lZx7kiC+QX3q1mhoOKTDaty8MCWNJOcrrEm5CQ1j4JhATYcTe5UeDimESpgKpiKq+WYK8uwXr1LKV59dGcW9AwvG1nKD55iqoKMzVlF7h27iL0Goi8DX4p1cVSjNgJ6dH6dQsE98odJ2TuDStl5fVdU5vdBhIpNwOVbt21dKvO5ryh7UYz1So/KD9Obl0EaONy8VUI09JLApdrP7dVXq2PjO02bEiRSlrXFmtFudNETQ1WK3h5tf7td5f9CFbXEzG23FNU9XkY3SO9qLxqoMpwnvKCPOw3ACTIfP3o4q0jcMrQW75ZhJsH0NoTXtYuVPMj7h10EYTg500rtc7O9+u2trcBbYSxoivVXjdQujpYkUbhzmw8eoXgoe6DcvA0fIO+Ju+7U9wctfyxKInsw2fvj7E+N1DSFePtJ94FgnajZZ0luw0rUlR1rlWKSi5H1owqyq7pKXMPIaJ7ExyrRIqsBZGcsfQqeGsJqvuulN49/KBcz9Umjid2OKwgu0PEmf2DFHpYCbndbb1RQlVBGqWnNpN3MhN8w/DoCmDHWlIKqpAmdKFr+NEOXST39m5VBljRWaWcz7+nagSCNqFlzrH8B65YtQwMCkSKY0b4EW1zXCNg2MvXV+QkJMzkEW0gfl5aQoPG8XSItkExW/lVrroF8ssAP+QSabNi1LLcQ1xgAFNiRxLq5UfvoKlMD+tG7sVDjtnuTkc5eSXQc1B/+vq4IZU2dk7mk3JOUc0wFxP90sDRdA/sg0yuQCLvhXdgD7pUXaubia7JPYqFMDTDhyHvpsTNqxcegXFohkTe0sW4RlVpDR69o/GQK5C4t2wpd+SQKvhBzsEOvU5M8HOlZa9++1k2pR5nfuxb/G1AGVeKj3Mmv5RezapNz57dy7DFPsGExLf4lQRKS3/guyOHGha7tosvzoTwq7hlrHanwVKe0OF/YvFAdV3RiEnrGA1wZS2/SUqh7PohVuzuxsuxT7DwWRVUXyHr/Mes/L71Jn3Ah6dX/RcvhtZ/snjPHwHI+uI9Zq023r0KxRCW7XiKwXUfTGHr/ilACUnz3+X90zc/ryJl9Q5GLBzL8q1jkblYyoNFzoYjJhY9XIX7GY8G6wd/vOGBR8RjdJN70ZUqakovYjiaUj/EUHOBooPgNygWTfwo3KiiprKYykuXbpmprqbizDfIhz+M/6MP0oXLFO/cQHlzFitKq3j8l3BwhZwm3CGB4L7jYp2joLPj3sfM9neq2PBbDRs66Hie7mEDuyd68NxvlZxqb2MEAheIxBM/QaovefPfn3lAj4763vsRndSDpcu8hWMUdFhE5CgQCAQuEJGjQCAQuEA4R4FAIHBBI+cYHBzcHnYIBAJBh0JEjgKBQOAC4RwFAoHABcI53m905WzfaODZe9JBEPxcUA0cxfb5zzj+vBBFv/t1Yp++rJj7CJNdbtK/HT8t+QvhHFsLn2Es+/pN5rnYtlfPDcbPKEN9VMXWRouztcx/ZSJzdCANj2XzbRqCNOhB1k/riz8QFjeONYmaTpj2o7PQlfhJT7JipArkoSxptrNoGurIh9n8TChqVMx4/knejqh/oqVnvmXS8i/49b7idk+Wcic7HTjkL6ofNvHsTyANnXCO95MeFmYMkbB3l6zFsgDBQT5Yjdcw4EGY1oOcXFPHlrAQ/LwoULD1UjXPTrR1+uixDfI5yujxym5mRBvJlUUQxCkOJhnp98x4VCVJbJv9OtkWAG96PPa/jH3mIXr2dIcKI0VpH7PtnY21EgYgCZjKuIXz6BeqpCprL4cv6EiIzubvz75OYVNM6TuZDcsDuZBkIiQ+BF+ZjaK0r3lv6Umyb3oUqQ9xv32KF+MD6SmroSjrHF+8v42d2fX7lRWDRvKHV+IZGqqECjNFWRmsfmcbh01Aj3hWbRzLza3Vgz/8I+MByObPj69kp1OEGPKQhQiTnKWXWnpvax1iugmbREN/HzMZehvgwWPPTCCxphjUPVAYM9lm1PD0QB8sWcdYuDuvdv+ylH6R0bwQpcW/mwRbSTHfpp5kjeOBgHoQK57RcC7VRHCUjmCFhNL8syzbcZGLdnBEUo/zQmUqv07WO5yyPJQlM/ty8Ysk1jRpk7SW+a/EosnMwhYQSLBcgsWYw+fJ6Rwy15eSBj3IZxMkbNpxlci4cPr7yrCV6fn8y1SSzSDvGcbc0RFEajzBYuZcRjorDukpBZB0Z9b0BPrn7mf+gWvYAKlPGG9PD8ewaw/Ls+1EJk7gDeU5Zn2Z5fgOgE9flk8P5VyTr6WjoGBkXAzTI/zQuNkxGAvYti+NZGPtjniJisTRUTwW5INGIQOLiXMZp1l5SF+/r12i4rFxw3g6yAdp9VUOpZtvd7K7IOHgERkLJlUQuapzy1+0WeToJjOSvuj3/Mv6EAmJ1eyd/XsyZeMZOsLPUSDgN0z47TAqvniJjx4fyydvLOZ0VrWTt47hocWLCKnYysbnx/L3v5vpF39rdpgmIPMnOiCTRVMX8Z/Pb+FCyGQWvxhY1xXt++JMFsRDyjt/ZupLa/mqIoRXl0wmWnGzgkBe/MNYAvN3MH/qYp6fvY51hw3U5WcrTmFWwuskPP4V31tLSJr9OgkJr5OQ0NAxwo9EDrRCtuw2W+aslJotWGqA6usYKq87RYRa5syawua5E3hBKyMqcRKbfzuCGA8/nnr+SdaP7YkECT41eSzbdhaDNoLx7udZsCUTS2g4sbVdwaDoON4cKiX9wH7mr/6ad9NtxIyLZZrayQw3P2ICSlmx9h88tfoYOZrBvDxQQesiITzIg+Qt/2DaR7v43OLPnHFh+N9azE3D5OFKDu3axbQPtrNg/yUKagB5IK9NHoy/MZ23Vu9gwT49PlGxvBFZa6f9Gmt2ncU28EFe1klBouKpcQPwyTjOymwbcINzpwso1QYz0qmbHNSvD/7mPL51coyWSgulFjt1z6eV7wQA1VUYLFZs2DGUWTDZm5dPL2xkHHMiIHX317z0+QGSLBpenhxNZF2qPhnqGj3bdu1n/uodLEi+hKxfLK/dvF90ZejoOF5Qm/l8yw7m/zMLab/e6G5tbE2001n+ojPTZs6xJu8gWdkHyc42U5V9kMv5e8nKA6/A2pboq8ZLZuRy2nHKTJe4duEb0jd9xbWbFQx6nEGBBRx//z0u51/i2uHFfJfWkte5mcObjpFvA0yZrEu6gm/8MCIA6ENivIaipK9YnWakOP8S295L4XuvwTwWXfvLkPrg4wtFJzK5UFxOcX4eB7Yd4nCzNU/shPj8iNF0u8SU11iz/hvWFIEt9yRzvrjAxbpjxXz6xR7m7yvAVPZv3l27i2UZFixZx5i/dhev7jdgx05Brp7cIj05Fse/C4v0FFR74K8EJFomRynJPHCE9dmlFJrLyTiTTpJeSUy4ysmOCo6fyKLQDlTq+Tbfjn+AqtXHNQvOnOVQJUAVh9LyMKj7EN9oksrOqdQ0Uow2bHYbhbmFZFSCKjSU/hSweV8eF80WcrPT+TTjOuGDQgmq/abNeIFlqVXEJEYzbfQIxrvl8JcDhrpk5raiLI6bfRgVftNBqBgVqqDwdBa5dee/wYnkXbx1qhwq81iy1hG1tjbG86nM2ZFHKeXs3L6L5ZlNUeu5SXfiw5UY0tJYn1uO0XSNnfsucM69N4mhtc3bbmD9/gukFJRSaLaQm3uRTVlWgoO6O56rRMuocBnnjqaTXGShsCiHlScaj3E21c6fivxFm8kk1Fir6/6uqR1hs1vBTVb7qj6/ldNZ60j8JJXw709RfOEgGclJFJocj8Q9QIdHRTbFRTdrtFJ0voCaO054uMBqIiuv/r8VxSasXr4EKOA0vgR42ci74BTima6QXyKlb6gPHDCCLZO9KeUsfPV1Pku8xIXsy5xIPsmB7NvJRt2OH3GX0cIU5DeoNFvQabpjyz3CCTNM1niQmX6ZQvMNwAMAW+2b3Ga3Y6sBsGOrkSB1AxQqdAoZweMeZ/u4hrVbzJ5IKXVEqjVVGCvrz2uz28G9lTUjsGMwO8VgJSYMhKLz7QompwZXY+KcvnED1PgqwKwnxylwydGboZ8CnYQ6WYzCU0fYFPoIL/SzkPT592Q0CHRKSc4wk9gvlKC00+T27EOM8ipJmW0SG7Yd7kp0CiuFJU52V5oosEgIVyqAcsCDyOgopg/U4t9NVp+UOl+GAihVKtG4XSezpP43XWksxVDj2TKbfiLyF22oIXMXbMf5dtZITkc/REj0Q4SP/19ipoxhy0uzyGzlNFuyW/PwNvh/DXemisPvvcvUr8KJjg5n6Ih4FkyJZfD8P/L+6bt915muGCvA3as5UQGAlMRJE5gRIAE3CbKaBDb3A5mbBBIfZ310JovXZzatqpoK9mxJYlXRnYvdyX+3yeSPmwSZm8RF3Teafb4GtrurCPOVAAqCtZ5gbOj4CjMvkTP8F4xSn+V4P39U+edqo9mfFqqIGF4bLiN1x14W5pdTaYd+CeNZ5OtUqAZsrZUd/ycif9HOs9VXuZb2FSc+msvns5eS6zWMfhEOz1WdX0CVl44edVrNMvxCda69uVSFWq1G5epNJdMQGlr/rZ4BarxKSsi3AJYS8is8Cezr1J/z6UWAr42SrIZP1pSdyd5NO3hnzkq+yvMmekSvhuexArg1dsR1SDhfIEGpq0F9uyIusfFt8h5mb8mksKaYz7/YxYIDxVgMmSxcu4tXt50npynVWEopqPYkXHtv44fWajtInH42CiU+zX7FStBpnQb7fHzQYKGgpGkvDkOJBZQ+BDsFtMFaJZgtGOoauAfxY6OJKkln4T/1+I98kMm3dtvNeaToFcREhZMYKuPc+YL6yZnmIJWjut3vr5Ww1tjBTdpYiqTaTEG1DH9fp+cqV6JT2DHVRufBAT5I87P4PNfhGEGKztezvi6zGUONDI1v/XOVKhUteK4OfiryF+3nHAe9zNiZU+kd0geFT196J47BjwIK8mrf/ae3cjovhJh5f6B3QB+6j1jEqBGu3YpqzAJWrvwLLw119ev0ZMSvJhAX4kPAoJG8MsWfosPHOA/AJZJTDPQcP4WZ0Wp6BPRh8rx4BldksDOtNipUhPP0vHjiBqnp4eNNyIjhDPKtIe8W54nVRHGFJ33j++AjdUPqwpRjRzypDrjOsGb6J1ulhVKFEk1JAceNFhRqJRb9ZTLMFoyVtqZFV3Y929LN+A+PZU5Ed/yVCoJ0/jyWEMuMoKZacoMcvRlpQG9i5AAK4qP90TTvcgDQREQxLcgbtY+WafHBqAz/JqWJkUZpVhbn0PHU6EDClAqCQqJ4oZ8nORmX6sYL/Qc+yAtaE58mZ5GRncbKbA+eGjeIsAYjBFWkntGj6DeYWIme5KyWxcXSobP5eOVKFoxR3b1wC6k0lmJQaIgPV6GWe6Cqu45rpGSa0URHO+6nsjuPje5P/+oCknMdL5sCgwU0WqLkAF1Rh0cxWet0I+x6krPt9I8Kd+gtSVSMH6qlpa/Rn4r8Rft1qyuq8Rg0g8njF+HlBVV5pzi9dA4n6t42xzm4aDFeC+cxde0Mx1KelFP0jG7mCkHrZZJTPHlu+esEyq6TdXgzi/6aV+dQLvxtLUtlU3hx4as84wUlWRn8ddFmDt/sgVmvQ49+vLgwHl9fTygx8H3SBt7bW97wPLZMvvjb9yx8cSZbx0txtZSn+qQXSRYD44fcYOvB5r2XwoJUWArOU4g38VoZOUeb32fJTdvP4ppopg+PY3k3GVgqKNQXsq2k6XUYz6SzOehBXp45hRlmE6dOF5IZ2mie+S7YOXdeT3DcGD70lWDRX2LFjotNW54FUJnHsm0ezB0dxdszPaHKzMUzqfwlzfFMpOq+vBan5FzyHlLMADZO7DvOoefjmBOnZ8H++omZyqxLnKvSEZadw6kWdiulCgVgwWRsw/FK43lWpqqYm/gon7iB6fReZux3TF9eTD3ACkkM08c+yhQPOya9nk+3HeNEbVMxnjnGGs0wZjw/hRnVVkqNWSRnVvBUXfB+g1P7DrBp3DAWzYqAagsXcw0Y1C1wjz8h+YtGyW6Dg4PJyWlSR+2+033mPl4atJWP5qysWwt5R/pOZsNyDV9MvXVZTfuhG2tg98OePP2qd230+nPDsc5RlryVJdnNHX9tA2rXaRZu28WKgpbYI2Xoq5+yICiZ1363wWmm++fJT0n+okPvkOk24tdEDOqLQuGNe8hURiXqKErZ2zTH2EEp2O3Lfx/tglrsrW5nuiKXexMf15dgcx5JLXKMAGEMDrNyfMv2n71j/KnJX7Rft7oJuPkMY8S8efynrxIqCshN/j1btrV4e0kHwY2kLV7tbYRAF8WHT/4CRdkVNu86ew+OLYNPfjOz9ezq1HTh2G5lp94V40yn6lYLOjJS+kUOYpTv7UtY9VmsOt+i+WCB4L7ToSNHQWfCRsapk2S0txkCQSvRocccBQKBoL0QzlEgEAhcIJyjQCAQuEA4x/uNkEm4r0iDHmT93AcZ2tq5M5pJWNx4Nj8RTNvtoblfKBiZ+DBr5jqkG1bFdc4r0j1sIO3P5bXZuVwjnGNrcZ9kEu6IOopVc2MZKYHIxImsH6ttAwmF+yMd0FrYLHqOZxooba2kCi3EpC/keG4b5YNsIv0SJrJ5UjDye6hDquvPjHD4dst2nv3rVl5N7YCrD5rQDgoOqNjrW8a8h26/vlXMVt9PbsokzGu5TIKgmRhzWJHc3kaAMTOd5e1tRCsgVXqgqDZxqqiKTp3AyCZjwwEJ2ydaCDnoTbaLIkImoVPJJHQClIHMSoggSqtE4wGWkmJSj55kTaalQYIMddAgXhgZSH9fL6Q1FeRkn2ZFcl7tc+1KWOQw5gzVoXO3kplxnkLtYIIzv2Z+WnmdnEPy2m/YWZt8NjJxIm/I05m23bFvXqqLYdWTffABqLnMu389wolbo0f3YN6eNQjDvjQs/QYzSqtEWlPBoeQ9rMi2cVdZiSYQNHIcfx5aG1rnH+PXX+Y0yPyjjnyYD6PMbM70IL6fHxp3OzlnjrDkgMFRrmcUq57UkHnGQnC4Bh+JHUP2af6yL6c2b+XdpSuGjp3Cmw/czMEzjA3zhwEN92ffDXXkw3wS71f3/3fm/wIAQ/rXzDpQe0VyDdMSoxkVoMSH6+TknufT5ItkOEcCtZINk0Mckg6mEgPfHjjG+gJbk54rKBiZEMP0cD/H76vMTGb6Md4+1fwINvugHOMkC2N6ePOxi+TVbRY53pRJuLbwExISN/D32b9n0JI/MXTEUrL3Xq2TSSj960t8dNiIW88Qeg9SNpZJKFnDxue3UhE4gwl/iMStwpWPvwMyf6IDjjF76jryvcKZt/w5Fr9o4PmPHDfbIZNQzlfv/JmkIm9GvPIUry6ZTPHzW0izQJ1MwoXNzF90iRKZD32jA2+RSUhxdKs3xpM//13ev+DKkJsyCd3uKJOAS5mEJlJTgcHcFasdrBYLJre26UveUTpA7oHMmMmnR6+SUwmaoAHMTYzDVrKrTpdFrhvCOxN6Y0o/xuIdpZjclcREqdAAhYA8KJo3Yrtzcd9+lhTYCRs+gpc1EgqbmLYSwFZwnBnLj9dq0dyppIyY4eGkHviOl3ItyHy1hOG4b0HRcbwZZWXPvv0sM9pRBQ1g7rhYrF/sYX0TsyrkHtrFpEOOMce3b5OrTtZNx9Dq/SxYVQq6ISydHMPkDCcdGzcfonyyWLA6lUI3DbOeiePNWDOza/Vx7saJ3V8xabejW71IeZpfb89pdtRnPPUNk06BPOIhPou1sHjVrWtaFTz2n3GMl2Sx4osD5Ei689Qjw3hzbBWzt+fVvhAUPDY5gekKPZ/v+JrjZtBo+zBS6UFTM4WqIoYwJxySduwiuQQUvpoGUhdAk9tBdb6M89Yyhg38kY+/6dLoeNtlAq+VSajJNjOIg1zOP4giD0YEqoGrdTIJp9OOU2YCTJe45uxUbsokLHqPy/lA/mK+SxvD1OZmAnchk5D4zDAiPsrjdJ1MwlpWpxkBI9veS2HExgk8Fr2NtAM1t8gkVAEOqYTmUyuT8MOdZRIcnGRObgtOYbrIW2tr/33oG+a0oIq745AOOAFAOUvW3nIvii6ywimZrvHMWVKjHqW/TlGbbFZKbHQfVPlpLDhUWNtoLOxM1td+oytRA3Uo9OmsPH+NUqDwwFlGho+gTeaw3CSYMtNYle3I6FNpLHRcW52sxA7W13YzCs+kkxQ+gcRwFeuNrTjWVqVnW3qpw2EV5HDO0odgrQcYb2bmruB4Wq10hd3A5vSrjBoeTNiBax1n0b1PIKO01/l2SzqHjAAWVqTq+GxcKCPleeysBHqGMz6giuSNR9hZ+xsxmk836xpUvp5QaeBEgQUjYKzMabz1s6ntwCbBaPmRYboacDE6L2QSOoVMQifCXcVjcVGMD/FD41H/IihQ3Jz7UxLkC4XphtsklvVEo5RQqjfXH682kWO2t41zrLGSU1De+POmykq0AtbKKqcJIzs2OygkTi/RmipynNLKWcwWbO5KdO407LK2I9JuPmhqLCQ7RdQ2owmDW6hDw6gSVBoVqioT5+6Sif5O5GZc4uLAX/L2C905V3CNnPwCkjMNGFvUSepCtRXcZeAOjeYBhExCh5dJ6Ex0ZWhcHNO1elZ+eYRDxipseDNt2qPEtLdpt+Wm3o4Lmigr0Ro23A1Zg5YqadByO3lO2eZhushbqwrpF6olUudPTFwCj/Q7xqtf5rQgf+QNlAowFnd1OUEqZBI6vEzCrdV4oFYqnDJBNx+pXIVarbqnJR2uURCmlVGYcY4UY5Wj0Uq80CmdjTWTWwL+Qd1vs+bvOgazHZWvsv64uw/BznXUWLEhcboHUlRyWWMJgXuhlWQlWgU3JUFOEgYatRKFxUxBbYtuunSF3aHX0wYm2spMmNwUBDk1JanaEU0W1k6ulBpKKfXwof/tGkBTn6vdQkZmFuv3H2R+8mXQBtK/Je3Bx0aIl4TsS66/LGQSOoFMQoNr7fcgn8wcx8tBLX90YTP+xMqV/49JQS23wzVVFJbY0ei0+EsAPIiMHUSkh3MZG6lplygNiOK1kf6EKT1Q+2hIjAsjEoAbpJ8pwKLtz4yI7vgrVcTHDaC/c2M3l1JQrSQq1CEZK+8ZwfiAVl7l3SqyEq2FjJiRUYxUK/DXhTEjygdDZk6tdG/TpSsMJVWg1hLjI0Uq6dq6a2BNeaToPRk1utZOdSBzYnWQn1MvWlaUSVK+B4njHuQxnTdqpYKwkDCm3ZTHbcJzDYqIYh2244sAAAQ/SURBVEaEhiClBypld0b1647CUu4Yj20myoHXCanwZK/LCVQhk9BpZBJaDykKqQyshbTmnIIDGykHjhE2Loqls/pjra6iMDuLbw1R9HcqVVlwkoU7bLwwMpq3h3pCVQU52edYcfN4bhpLUocxJy6BD90cS3kOGQYTfLMCu57P913mzdFjWB91nUJ9Fum512sdMoCCydMmMN3JQ7z5u94A5KTudCwHagL3LCvhHszbvx3mdO3D+Gz+MKCCPRub0V2vucq3mTKeemIcOjcrOZnHeDe1fqa6qdIVxvPpJAUNY/r0x3nZrXlLee6OhW3/TEWVGMXLz4Sj4DoFuWd5N9l56ZKFndv2YxsdxeQJj/JC3VKe2hSJd32uYLF3JXh4DO+M9kKBFYOxgJU7vnfSeG8qNxjzcBXmo5rbat10qnyOQiahNfgFL328hMiMRcz9MKOTjFc5xi2jbq5z/DnRM4pVT6rYtvpbkjv1qusOhq6c3e9fZ+tvNaxxscYR2n3M8c4ImYQ2wL8/YYpz7NzcWRyjQND66Hy7cHCFLxtu4xihg28fFDIJbUDhdn7/q+3td36BoANQcMaLpXcp06m61QJBx+CnJAmhIjEhlLA7lMjJPM3Ogp9fP0M4R4FAIHBBI+coEAgEgg4+ISMQCATthXCOAoFA4IL75hy79X2DtVOfo9lJdQQCgaAdEJGjQCAQuEA4R4FAIHDBbRaBy+k7YCbTBzxAL28pNlM2351Yzee5Vx2Hu0/lTxMf4PyJPHoPiKK3J5Tpd7EieRdZtRvApap4ZiVMZIifnMqr6Xx9pfWlngQCgaCtcBk59h78BvMHyzlzZBlvbljE8rOVDEmYy9PdnQq59WaINpuVm1/h+Y3ruNx9IjMitLUHQ3h6zPNEXN/L0s2LWPqvSoZHhLZJqiSBQCBoCxo7R8kAxg/wI+vIX9iUm42+Qs+FC+v42qBlSEigU0EjJ79PQW8Hrqdz8IqNXtpARxokbTzDfS7z3ZFdXCjVczl3I1/ltqcopUAgEDSPxt1qz0B6yRUEjf6YjaMbHrKUd0NKbebhmjKMdVlCbNjsNnB3dJ3l3n6oqvX8u7T++GWDHmuPNrkGgUAgaHVcjznWGNmX9HvWGO785TvttrxVKuW2qegFAoGgA9K4W309jyvWboT28HNRvGlUll+lUuKH2rP+s15+3cSYo0Ag6DQ0do72sySd1dPrl3OZFfYAWi8tvbUxPBI7l+m6Js4461M4Wh7I6MEPIAekXvFMCLon5RSBQCC4r7jsVl/+fhlL7VN5eshc3vVWQKWRK8VnSSptatqibDbtXUe3hN/wwfNgq8zj5JXLYsxRIBB0GkRWHoFAIHCB2CEjEAgELhDOUSAQCFwgnKNAIBC4QDhHgUAgcIFwjgKBQOAC4RwFAoHABcI5CgQCgQuEcxQIBAIXCOcoEAgELhDOUSAQCFzwf/w0saQNLIXhAAAAAElFTkSuQmCC;" vertex="1" parent="1">
          <mxGeometry x="-150" y="250" width="233.58" height="60" as="geometry" />
        </mxCell>
        <mxCell id="5HhIV1nGv7MH1atSg8IA-18" value="" style="shape=image;verticalLabelPosition=bottom;labelBackgroundColor=default;verticalAlign=top;aspect=fixed;imageAspect=0;image=data:image/png,iVBORw0KGgoAAAANSUhEUgAAAIQAAAAaCAYAAAB2KPSUAAAABHNCSVQICAgIfAhkiAAAABl0RVh0U29mdHdhcmUAZ25vbWUtc2NyZWVuc2hvdO8Dvz4AAAAudEVYdENyZWF0aW9uIFRpbWUARnJpIDA0IEp1bCAyMDI1IDA5OjU1OjQ0IFBNIENFU1QfV4VHAAAHyUlEQVRoge2aeVCU5x3HP+8usBy7crMcooggUkBUhAjrUa9A4x1oTVqNsTPNxMSatF7JjJ3aGFPJOJlkVFDTpE6TTjJtJ3GcJhojKphEjMhy2ESoByrIwnKtu+yy59s/wGNHYCGYMdO8n5n94332eb6/3/Psd59rV9DMniciIdGH7GEnIPHDQjKEhBuSISTckAwh4YZkCAk3JEMMEyEwjsnJUfj2PjAufSJRvg87qweH13AbKIIiSX5mD3JfJYLQe2IVRQFHdyff7H8eu6njgSf5Q8LrJ/ls+MVNtm78gGuyZAo2rODm1o38/brzu6ihDPbD1mnEBgjBj/KH3SswvPUsb52zP+jUh5jRMInUFGC6cQEBwa1cRESdk0/jsbcfWHL/93hnsvbNeVT+5lVKbCAazvHPfV30fON4aCkNyxC+EWNBkGHrau33fbnCH0VQJNYu3cAislCSMyNoq2ojZvZMJih0nDtxhgZhHDPmZqC2XKT0ZC3622PiF82UnEwSAy3896tTaHU2QEboxEzU7ZW0hM1gdloI5roySqr12PEiMm066vZyqm86AB9i0rMIaf6K2lbX/fkoIkmbnkFShIwWbRlfXjLgAvCLYUr2VOKVZhqqzlB53cxQbvD8oiejyUwg0HKJL09VobP1H+f0VW8mZk9idEAIplk/xdFykdL/2MHpwCXejeQXM5mcjHiU5ga0Z7Rc7xY99H9kyMfExW8bamW/8DjGLlqPMja531dATBJ67VEcps6BRbzSWbPjOfLSJhHrY0eZUcBKTRzxOdOJEkXGLljFzwKr+ay6AwIzef61DWjkTTTZ41j8dB4KbSl1RjlTVu9gbW4qk8YoMBNP7lOPEVxzjKp2P2ate43HXJ9xor4HhCDmvrCdOd2HKL3qPq0Lo6bxbOFWlkTcQmdQMXVBMsYzleiUWawrfIkFqnb04jhyVz9JSkc55dfNyGJzWJpi5MSxCxiE0WiWpmI8cYxaAwRmrWXn72cga2rEHreIX+cp0JbWY1TdH6e0rI3sJXPIiA9CNDpRoKPiSjRrtv+S4PLj1BogKOs5Xn95Pqq2NsRxuax5MoWO8nKumb0G6X8/ph8GQ5oh5L5KJjz1Z5pKDnoW9FWS/Mwe6v/2Es4e04D1Gg7tYHelGa+JTva+ksDl9Vv5SOdEdU3Nu3NScXKFxKUrmVRXzIt7tViQcdZZyOYF4zl8sKFX5OohXi2qwoKS5qh3mJ8WBvXdQ+kSICdh2WpmdXzAC68cQS/eLU9csYrs5vdYV1hCpwgf129kz6p8Us/s5+KAcuNZvjKdi8W/Y4/WArKvcRZuotH1KYn9xoFPPvyaWZoUTh4oosQGeE+/Ry+B5auyaX7vt+w83oXIx9Rt2sPq/BTK9tcN0v9BZuchMCRDRM98ApfditNqxthQA66+b5pMBghuzy67FdFhJXrmE9z4/C/9C4rddLRZAXAZDJgcBto7ejV6bpmweSsAJUkTRuOvXMaWPy7plQ8OJ6QxDGgARMxdHfTOyFZuGa14K3yAoRpCSdIENTfOV9B271ogKElKUNNYUU1XX7lRW8u19fNICpMNbAhlEokx/qiWbWbbEgCBkIgQPhwojgcE5QQS1I1UVBn6lioTVTXXeHF+ElA3SP9HhkdDKMekIvdTYWm5SnjmQrpv1kPfhtLScgXRaScgJoneZU8kInMx5ubLyP1UKMekYrp+4TumZsdqs9N69n2Kjnf1DYqIy2Lw0K63pkwmeKjnwGYX8VEoEO60AkQ7VpvLrVzwVeCDHZt1kE/UYcXuaKH8/SI+77qt5Rw4jqdeOKzYRR8UijtZoFD4gM3mqemI8HgPoQiOInzaQtTTlxM+JY/InAIic/KJzMknMDGLUeOnoc7O7ysrIGxqHursxwmfthBFcNQIUrNQfb4O9SMawrv16PV69EYzFounbZONW0Y7YTGxeAOKOA0Zo293U05U1mLy0oIACzXaS0TNXES6SgAEVKNj++LWo9bkkuwPoCAhdxZjrp6n0iDS6/y7Z6y+RzBXU1Gn5hFNON363nyNlp4B44TKQLRaseOPalQ/5u3Tm5E7kd40xpM3O5Yr5ytHMKaeGfax0w1RZOieHx6xMpEbR4s4MHYzm/buRq+zEhBk4dSuP/GPy4O1tKE9UcqvNr/MvpQ2TK1nqfjWSByALAJNwdOs6DJSVnsK3adFvDN+CxuKD9DVCQGuat7dvpfTR4vYH7eFzcXFGM2+jLLX8NfXD9PoAtnNJvRRj1Kg+YRdXzTR2BZFboGGf79RxpG9bzN28yaKdutpsQYQ2HOSXdv+xaWB4nRUcrr256ze+QYz646z4c32e8ZWz5GiA4zbsol9xSbMviocNQcpPNwEeH8vYw4gePo/RGj6POIf34Loct+hi6JA17df4HLYCEmbe+eS6o6wTM6Vjwppry4ZcZJeynCigqBTp8c0xCO6PCCcSJWNVp3B7SgmDwgh0NlJR8/dfGW+wUSobLTpu7lXXuYbTJh/D20dFu7u3QX8QqMZZdXRYnIi+IUSo7LS3Gqid4S8UEVEEkQnza33690XR1AQHBWGl0GHvru/yy0ZvsGhBPS0024Z2QliKHg0hMSPC+m3DAk3JENIuCEZQsINyRASbkiGkHDDy9DZ5bmWxI8GaYaQcEMyhIQb/wOBfT3TB+K+cAAAAABJRU5ErkJggg==;" vertex="1" parent="1">
          <mxGeometry x="-150" y="357" width="132" height="26" as="geometry" />
        </mxCell>
        <mxCell id="5HhIV1nGv7MH1atSg8IA-23" value="" style="endArrow=none;html=1;rounded=0;" edge="1" parent="1">
          <mxGeometry width="50" height="50" relative="1" as="geometry">
            <mxPoint x="-420" y="310" as="sourcePoint" />
            <mxPoint x="-420" y="370" as="targetPoint" />
          </mxGeometry>
        </mxCell>
        <mxCell id="5HhIV1nGv7MH1atSg8IA-24" value="" style="endArrow=classic;html=1;rounded=0;entryX=0;entryY=0.5;entryDx=0;entryDy=0;" edge="1" parent="1" target="5HhIV1nGv7MH1atSg8IA-18">
          <mxGeometry width="50" height="50" relative="1" as="geometry">
            <mxPoint x="-420" y="370" as="sourcePoint" />
            <mxPoint x="-370" y="300" as="targetPoint" />
          </mxGeometry>
        </mxCell>
        <mxCell id="5HhIV1nGv7MH1atSg8IA-25" value="" style="shape=image;verticalLabelPosition=bottom;labelBackgroundColor=default;verticalAlign=top;aspect=fixed;imageAspect=0;image=data:image/png,iVBORw0KGgoAAAANSUhEUgAAAQcAAABBCAYAAADc3WFiAAAABHNCSVQICAgIfAhkiAAAABl0RVh0U29mdHdhcmUAZ25vbWUtc2NyZWVuc2hvdO8Dvz4AAAAudEVYdENyZWF0aW9uIFRpbWUARnJpIDA0IEp1bCAyMDI1IDEwOjAwOjEzIFBNIENFU1TAiWE3AAASFElEQVR4nO3daXRT553H8e+VruQdW94lS94k2ywGOyxmN1uwIcV02nPYErI0zaSzdKadaZvT9iRpZianS6A9PW0m7UzPdEkbyAKcJJCEHZM4LAlLYgwBIy/yIu/YliXZliXdeWHhOEQ22AEM7fN5ZUv33ud/n0f66W66knJnzFIQBEG4hmqiCxAE4c4kwkEQhKBEOAiCEJQIB0EQghLhIAhCUPJENm5Kz2T56rU4ujo59M5uHF1XJrIcQRCGkSbiVGZsXAJLiteQNXnq0GN+v4/TJ8o4VnqI/r7e212SIAjXGFM4xCYkMiU3f9RpPqn4iCttrUGfi4iMZNHyYmbMmoskSUGn6et1c7KslA/KSlEUcQmGIEyUMe1WdLa3YUzLIC3TEvR5W7WVY6UHRpw/J3cGLqcL78AAGq026DSefg8oCnpjKvZ628jFaOJIy52KPsKHy9GLDx/dtedodCigTSB9ag6JYX20WSuobetDxIwgjI06McnwzFhmqK2qZNqMmWhDQj7zuKunh1f//Ds8/f0jzluybjO6+HjeO/gObpeLZINx6Ln+/n7eP7Ife30N8wrvxdXTQ4OtJviCVHrmPvJ1ZoXYsbviyV1RiAEHnU3VtDOFosceZHpYNw5Fz4yVRRh7KrC2jlyXIAifN+YDkq6eHvbs3Mb6hx8f2jVQFIU9O7fh6um57vzxCUnc99WN1Fovs/u1l5gxay5dVzqw19uYV7gcXVz84DJH+axXJeUxJfoyR/94hBqfmtaoTFb0f8SFFkheuYqsK3v546uncCnwYcP9fO3eZRg/eZ1631jXVhD+do3rVObg7sPBof+PlR7EVm0d0zLSLVmUrHuA6soLaENCWP2V9UPBcD2KswunKpbYKAmkMGJiQuhz94IUht4Qy5Xay7gD2dJXVUV7ZAqGScGPcQiCENy4T2UeKz2AMS1j6O/xSkhOIS4hcUzzKD1nOF25iFWb/5nsPhVS5xEOnukGJRSvz4+s+fR4hqTVIOPF6x13iYLwN2nc4XB1V+Lq3+OmjLYDMQJtLnnpNva98BrVn3nT92OrrGfJ7LmknNhDQ7+GpFn3ENdcTo1THJIUhLH4QhdB3cgxhuE+KDvCouXFhEdEjjpdS7Od6sqLI08w0EiTay33fdNET78PxefB2fQRx/cfp+nUTg4lb6bkX75HX7+WMJ+Vo6+WcUVkgyCMyW2/CEqrDWHu4mXMWbAEWSNTcfYUCXoDSckGnE4H7x3Yy7mzH466DLVpNRuX9nLw9bP0yWrUYQZm/d0GJp38MTtPD15AJWmjiArx0NPTL05jCsI43PbLpz2eft47tJezHx5nadFqVLKMComyw/v5oKwUr3fgOkuQCEkyMImLeNzddPtALaURKnfS0eoZmkrx9ODwjLIYQRBGNSGXTw8Xn5iEz+ejs6P9xmfSJDGtaA33mMLxD/jA24nt5D5OXLyCOFspCDfHhIeDIAh3JvGVbUEQghLhIAhCUCIcBEEISo7WxUx0DYIg3IHEloMgCEGJcBAEISgRDoIgBCXCQRCEoEQ4CIIQlAiHO5FaR0ZG3IT9boBal05G3IT+akGAmtj0DO6IUv4G3bZwWFq8BlnzxUc5IUnP2vUPUrJuM/GJ+ptQ2Z1GInbpo9yfp8V/M5YWs5Tv/XYrD+XcYN9LOpY9ej/5ITej9S9G0i3l6/fncQeUMn5SDMu++1t+sTlnoisZs9uWyTlT80hMMnDgrV1j+5JVQERkFAULl5E9dfrQY1+9/2tUflLOh++X4nI6b2a5E0fOYu1CN/u2NN2UcFB6Knj7D+20V93YrbA0WSUscu/jZ/aJfkfKZJcsxL1vCxNeyheh9HDu7T/Q3l410ZWMmTo1PfOZ29HQ7PmFhIVHkDM1D5erh462lhuaTxsSyuz5hSxbtZbEZMNnnpMkifiEZKbMmIksa2lvbcbnG/lNoNHnkhfrxB1XwKp7Z2MYaMTWqSFjfjFFc034m2pp7wtMHGZg1vKVFOab0HTYaHb5ARn99BnEOnuImVVE8fwsQjtqaHL5QaMnb64Rr72dXgUkXTbzckJpbekZwzdFJXRLH2FF12u8UtGHfvoM4lxu4ucWsXKWAU+jjU5NBguK72WuyY+9tp2r5cq6yRQWLWWmwUuzO4FpSf00d3rQJFuwqJq51OJGDqy/M3oWRUXzyArtoLbJ9WkISTEse2QFXTt2cK43mekzYnG545hbvILZ+gEabJ1oM+ZTvLKAVKWJmk87i5SZyylanE+a3IGtZXCZmhHb02CYUYDRa6e9VwEphpy5OYS1teAIdJakW8rXVnTx6o4K+pJv4bjdQC3DXkEkTV9G8ZJcYt2tKKYcoh0tOKRRxl5OJsuioqmyZei+pneL2xoOACq1mgxzDlHR0TTUVeP3B/9Y0GhDyM2fzcr7vorP7+PY0YNcvlhB5flyLl0o51LFx1ys+JiLFWdxO3uYMbOAaXmzURQ/Vzra8fuuHVmZ7A1P8e3V08hKlumNnMPG9QWkWwqYEu4iJH8dm7Ibeet4I0rSUr7zzGNMdlqp801n44OTqT94hlZVFhuf+hb3TZuMMcSFkrWGR+YNcLj0MgM5m/jRw4mc3l9OpyKhu/fbPFXQyu7jDTceDnI2Gx4wcfzFI9gJtDXVQrK6j6iCDayfk0ZWwWTC3aHkr9tEduNbHG/0EZn7AP/x5JeJa7XhTl3N5gdWY75ykEOVA2RveJLHTOXsOds9tP45phDc/izWPDKPgcOlVAZ+YEyTvY4HTCf40xE7ZK3n6W+tJjcrGbk3ijkb1jM3zULB5HDcIXms35RN41vHaVCSWP7vz/DYZCdVdT6mb3iQyQ0HOd2qGrm9gRw2Pf0wSaf383GngqRbwbefLKB19/HAHcJlctY/gOn4ixy2c0vHrVeefJ1aAqQYCh5/lidWhNLQoJD75YdZvzwR29tlNFpGHnspaz1PPWbk3L6ztN9lW0ATdqgnZ2oeGlnLgbd2BX0+NDQMgzGN0PBw0jKzmBQdQ+eVDlxOB2dOvk+GJYeIyChOHX+XzittRE6KYcr0fPTGVKqtFxnwXPM7FVIk5rRJtJ/8KVt21ePVrWHagkLsu55le7WH8KJsFhdE4JHiWfWN9YTsfpofH2pHkU6gzXuCXL2KCoeZ9EkdnHxuKztsHjSzkli8MZwORSLOkk5Y/e7AC0qNxWygudrK9W5dM6xAdIVrMJZv58+9IMWYSZ/UzomfbWVnnQ/dmqksWGJn57OvUO0JpzhrMXMj1BCaz8PfXEj9/zzBf592oqjLCf3lvyFXOQLrHEXDIdun6//Bc2zZacMjzyJx8UYiQiVg8BOzsMRI+faX6EUixpxOdPtJfrplF3W+GEqmLmBJ007+8+UaPOFFZC0u4IRHIr74G6zX7ubJnxyiXZE4ps3j+9OSoaJnxPYkyUx6WB17Au8+2WwhpakKa6CzJF0hJSnlbPtLL0gxt2zcQiWQokev5arIeY/yjdwKfvHE7znfB5oaHf+7qZmjfSOPvSfQj5MaDlJ7F97geMLC4dKFjyk7vHfE5/v7+6ivsVJTdYnsydMxmNLQxSUAkKRP4fWX/4SiKGRmT2HBkpV0Xeng6P49hISG4fUEeUuqM7EY7Jx6oZEBQDYaibef5f1aDyCTakygra4OSTePwtxQtANf5/uzATQk6/s45FSQzWYM9lM8X+8BJKKNyUj2E4CMxWygyWrFC6DSY0kdoPZw56e3qJPiKXz0cZbqVSi+Gt751Uuccg2rT7awdlHv0LEGjdmMwX6a5xu8gIzJGI/9zDEGyzVhTGilrs5D2Jxi5nUd4HtnnYNthZgwTGrkeK03sM4tVF32gHpqYP3r8QBSjBG9qpETbYMfZ4PHGvbznH1wM9xsNmA//QKDzZswxts5c8zGYPNGEtvqQNIxvzCXUO0Af//E7MHl6PX0HXIN6+/PtyffY8Fgr6JysLPQW1IZsB0O3OdTJqtkEb37A8ca5Fs3bq3+wTAYuZarIpm3Ih/7O//KhT4AidhUA4qtbNSxBzVms4EWq5W78aZktz0cvAMDvHdkL5Xny0edTqPVYkw3k5aZzYVzZ7h4/mNmzl1IjC6OqKho7ilYgMGYTkRkFCfLjqBPMVG48kvYqiupunwBrvkxXlViJia/jXfb/YBErCUNbf0umvyAFIklI4qGvfWo4hcxyV7K87/eQX3gBaL4vbh7JQwrTPjr3qPDDyCTZdFjv2wFtQGLqY+a/V2Db9BQC+YEOyeH3xpb6eLsG/9HpSyBv5fO4cGAhK6wZGirAVQkZA5rS9JhSdNSt6sZPyBFWciIauBJK2TMS8ZTvy9QE8gZFowd1Vj7QZWUiQkbZa3+a9YfZIsZvf0yVi8gxbB4aKsBUCVgTvVje699sL1YM+naenYOdhZRlgyi6veCKo6ESY2UPv9rXmsIFKAoDPT3okpaPmJ7KRYT/bX76RrsLCyZCTR+UI0XkHSLWXt1q+EWj5sXSBulliHqRAwJ/bQ0BQIYLVlZyTRWVI8+9io95lQF2/utN+Xg8u12W69z6OxoY9f23183GABcPQ72vfkab7z6J+LjE1i4vBjrxfOcLDuMIknk5s2moa6GqsoLLFq2Cl1cPG+++iL73tyB0+H43PI0ZjNJ9moGD9prsGTqabya9moLFkMTVdYB/G2tdEankartxeVy4/L68fV5AvMkYa+qHtxVUKdgNvZSe9kBqkQSdb04HH5Q6Zi1cQ3TOqux9g2vwEtPewvNzc00t3bzmZ0e2ULJQjf79l09Q3FNWxozZn0jVuvgS1Y2m0lprgIUPP0+wuMSCZeAkFSKvjKfiPoq7L7AOjdauey9dv3VGM0m3LVWuhWQLWtY5N7P3qunBTQWzIl2qgLhpjGbSbZbB4MENRaLgaZqK/jbaemMITVVi9vlxuXy4fP14fGN3l5iog63w4EfFbEzN1IyrZOaqj5AxvKlRbj37xs6Q3Erx01hlFq0KcxekkeiCvD34HBFkmbRI0vhpC9/nI33uKm1Okcf+0A/Xh23u81t23K4uhvhHRhbR7XYG3j9lRdJt+Qwv3AFKrWaj08dByRmzCzAOzDAkX1vUFtVOcpS1KSZjXTX7MIFoE7BYnJR83YPCqAyWEjz1VHa4UfxHmHb3oV8d8svWdroJCK6l8M//wlvNKZiMXZTvSvwkR9qJjOugTKbF3w2LtmSePjpreS32Dlf3Y3DZqXxho5ESsQUlmAq385frm7sqD/bltpoweiqZU+PwuCmbxpe21E0+Gkq20/FqofY+twS2lxt1Hnc1FdVMYCa7MA6O4b9PbjEECwZcTQes+GVYlheYqL85W0MNZ9mJqW7hh2DnYXRbMRV8xYOhcBmsw9baQcoXg5v38vC72zhV0sbcIbH4D6ylf960/7Z/h7eHmC7VEvSQ0/z87xmms7X0O2wYW30IcUsY62pnO3bhiq5teM2Si0h8x/iiX9U87uz5RxwtHNo++vk/8OP+M2SNi6+e4E2pw1r3ehjrzYP78e7j7RwyYq75gSLSq0mN38O98yZDwqcPXWM8x99iM938zfa5MgE9NEKV5rbcd3Im1wdQWJSBL2trfSMJf/kLB76wQoubP0tp3qvP3lQmkkkxanoaumif4yjKWdt5of3fsKW35xmvM0jR5KYHI2/s5n2G+ssIhOTiHC30uK82lkyWZt/wMpPtvLC6XFXMvZxC1oLoI4gbpKXjs7P/wCzJv+feGFjM0/9cBfNfsY/9ne4u+rCVL/PR/npE9RVX0ZBobvzyi1ry+tso34s11X5XLTax/oRIRGzeA3G8pc/3WoYjwEHLc3jmE+KoXCNkfJXto0/GAC8TlobxtRZOFvtDJ9Dill0zVbDeEsZ47gFqWXwYRcdnYHa4gtYM8vBuwcv4gidzIZNM2k88gNa/Z9OO/axv/PdVVsOf4004RGo+130Tcg99WXCI2T6XX0Tf0t/OZxIuR/nxHTEqKToaXz5oXUsMusIV/VSc/QlfrfrXOAg5l8vEQ6CIAQlvpUpCEJQIhwEQQhKhIMgCEHJ3Z1dE12DIAh3ILHlIAhCUCIcBEEISoSDIAhBiXAQBCEoEQ6CIAQlwkEQhKBEOAiCEJQIB0EQghLhIAhCUCIcBEEISoSDIAhBiXAQBCEoEQ6CIAQlwkEQhKBEOAiCEJQIB0EQghLhIAhCUCIcBEEI6v8BVLKe6tfhxA4AAAAASUVORK5CYII=;" vertex="1" parent="1">
          <mxGeometry x="-120" y="383" width="263" height="65" as="geometry" />
        </mxCell>
        <mxCell id="5HhIV1nGv7MH1atSg8IA-26" value="" style="endArrow=classic;html=1;rounded=0;" edge="1" parent="1">
          <mxGeometry width="50" height="50" relative="1" as="geometry">
            <mxPoint x="-74" y="421" as="sourcePoint" />
            <mxPoint x="-74" y="491" as="targetPoint" />
          </mxGeometry>
        </mxCell>
        <mxCell id="5HhIV1nGv7MH1atSg8IA-28" value="" style="shape=image;verticalLabelPosition=bottom;labelBackgroundColor=default;verticalAlign=top;aspect=fixed;imageAspect=0;image=data:image/png,iVBORw0KGgoAAAANSUhEUgAAAKsAAAAYCAYAAACFtg3CAAAABHNCSVQICAgIfAhkiAAAABl0RVh0U29mdHdhcmUAZ25vbWUtc2NyZWVuc2hvdO8Dvz4AAAAudEVYdENyZWF0aW9uIFRpbWUARnJpIDA0IEp1bCAyMDI1IDEwOjI4OjQyIFBNIENFU1RXi32FAAAKTElEQVR4nO2ZaWxU1xmGnzurZ/WM9wUzYMB4w2NjdigOix1CCUmqBEIDiQlNaBqiKJGqKKlSVapUqX8qJU1RmjRVyNYWFRpEE5FAAoGGzcEQUzB4YTMYM/Z49u3OcvvDZjF4HYwiV/P8so7v+c733vOe755zRigtq5RIkGAMIPuhE0iQYLgkzJpgzJAwa4IxQ8KsCcYMo2bWWYV+FpV7USkT57UE94ZRMasuKcZvazt4dY0Na35gNEImSHAHcZt1VqGf93/ZxoyCAAV5IQShp73YEmJcepg3Nl1hXbVjtPIcU+gq17Pp5UeZpBjGw3INOq1y9AYXDJQ98Wt+/lAR8tGL2s8ws/jJK6+xrGAYIkdJoxDvPeuHr14i0xQBICaBTLj5v5gkIBN6wj75+zw6ukdxMsYAgsFCQY7IhaarhIZ4u/LiNWwsb+KdT44RGZ3R0eVNIzvcRGtHkHu2KRMM5BbnIbY20hkcfJTR0ijPyMz5TTwdL3cqWVzuRRBAECAUFvAH5ahV0o0qu3Wfif0n9QMHEZLJKcxGcAlkVcyhyGIg1NVJQJlL4YyZ5GfI8NgcNydclcaEskoKJ2Wh8NpwBmOAgD6vhHTBgZRZjtU6lTS5iy5HEAk5pollZMi7cAUkQIk5fxrpkg13cHB9qvQiplWWY8nSEnZ04gv3tCvN+RRarUzKSybisOENC+jzikkX3CgssyiboKS9WyJFG8bZ7SN6XaNbTnb5bIry08B1DXdIQmYcz1RrJYXp4A4nkSR24rp94pWpWKwzKJo8DrMpjbTMDDqvdQ2qS52cjiZix+GLxqURZQp5pRUUFVgwROzYPWEEo4XJGQJe5QTKpufT0daNIU1LtNuOP9o7BzI38nGVlJVOxoyTLlcIYTgah0lcZtWpY5iNUZZO7zHr7noDv3ovi+0HknF65cyY2rNvPXpWy+VOJUFxgN2GYgpVtY9gnTiJVGUE9ZRFLCjJIqO4FJMkkT59GVZdMw3n3KArovrpNUyVddIdyWZ6zRyUrce56pdjqdlIdWU+4zNUiEIO1uq56M4f5aJbTeHKjZRLRzh9RQTBQMkjP6MkeIDGjtiA+oT0KlY9tQB1x2UCxmJK83w0tjrQFDzET59YgNFvJ6ApoHS8j1MtLiw1z3Jf2QQm5aoRnTYuqeawarGBlvpz+OVTqFq/mjlFE9FHvERSKqhaMhnff09iTy6h0lpIhk4iGFOBo4WrrlvykmUzu3YDlep22n1plC5ZSA5uGhqvDKJLwFLzDPP1pzh5wTdgZe1PY0trN5K2kCUbaqk0+XH6tUysmEig8Sxuy3JW11SQW5CHKuSk5YKaqier0Z2po83XMwfLf1TKOEMEfySNkuplWLzf0yxNHlzjCBjOrqoPc4t9vL7WhkLe8xpCYYHNO1LZ/OIVzPoIL23OoeGchrL8AOvv76a2pps/fprGvw8bB4xpO7iFL1uCyPJirH9yHNc2/5k6RwyNLYVnrZOI0U7W3PuxtP2LD3Y2ISLQEnuelRW5HNvd0RPk2n4+3dmMiAZnymuUTkiGy0OUzwGQZYwj1d/Evm/3czW8v7dxHDOXluPd+wbb65y3mEAByDBKZ9jy0UFcEsiLZvYNKPlp+fxd9rZFQDiMt/ZlKqypnDpwiINnK5hqqeernXd+ImWZVoqSm/nm/b2cj8qxGfJZEjoRl6ZhaURG1rwHKPLs4YOPD+G+xelyQGaSOPf2XznukEBReltEieDZHWzddZEoAt+7n2X9rOlE3903qMaRMGKz6pNiN4wKEOqtmqnGCCqFRGpyFE/gZiUVBEjWDfI5kgL43GLPnz4voagXr7dn5Yn+AFGFEtCQnZuBSruQB9cu6IlrMKHvNAEdgETI6+59EWH8ARG5UgnEZ9Zo016+LVnDI5sm0tZwkCPfnsAmH0+W2cb5Jlc/1SqGs60Vz0BlTAojhnqrieTBZvMxMzUNsA+ah+R14pWNJ8UgcN6lwWRSEzw/Orct/WoMasjOTcXe3NivlpjjIm2ugT/hkdD1PbKEt+Ma/vlpo5LrdUZs1m8a9Di8CsryA6y+z4lRF6VmhodNf8wlxRjF6ZUza6q/91kde0/o+b5Vc5dpRolEI7gbd7H7uLe3TSIm+oboJwECgiAM8dxthNs5vvUPnEorpHzRclbVZvDW+91EUaK467OijKQkFRH/0AtJ8tRzrGkBy9Y+T0FQhuDYy556F6AhLl230p/Gt/cTiUoolKr44/Yi0yShDPvvOk6fmCPtIEYEvmvSsKvOcKPtuQftvPBwFw/NcfPmL66gVPSsr7qzWg6e0uEL3u11boiLTZdILizDGHTidjlxB0KIoaE+KhECgTCGtEzkgDJzGvlpQ+ciM1vINckQuxqp+7IOuzkLQq1caE+laPZkNAIgaEhJH3hr0wdBgzFFiwDIzBVMyw9zqfkKAGExDGptT0xAllJE5Yx8dAKgKsU64SJfvP0Wf/vLm3yy7RC2cPy6htRIkLbWy5inzcOiFQCBpLQM9MNaEwJqUxpJAiBLobhiCpELZ/rVGC8jrqzXeX2djVsX9rSJd1aK51d2caxJi919dzd+qYKE/bvtfJX5BCs2vYzHIaLWiZze9h6H2wfrGebCiRPMf2wdGywugs5TnGvzkz7oaAL63OksWvwYgseNZExBqvsnaqmb4zt3krnqcTa86MWHhtj5z9iy49TQAgQlGfOfpnaRHJVRh6d+K7tae47egZYGLi1cxpqNVq7W/50DqsVUVXkJnDzHafEKV30rWb4pD08oihQV8V49waEvD8WhaxgakXAe3c7X2Wv58Quv4PeCOtbCvo+30TyMqMqsKh59rhp5UjIadx2f72gGpDs07jzaNexM+2Qd7z3rumoH65Y6+Mc+E0FR4Kmanh8AvmnQcbxZyzMr7DRdUvP6lizE8F0uqVuQacyYdOBzOAgNfjNzs0+SmWSNiNvh43oXmUqHRt1PNQoH8AUjgJwkUwpqsRuX/9aBBJQGM5qwC3dwGAkoSlnx0mIcW/7EUb8RlejEJ/Z95YLSgClZjr/bSQgNel0Un0dElvcAj98XYM+nxwkq5Mg1OVQ+vBrjkd+x7VigX119havRaFV97sABkCIEvQGiA2oEQWXAqIngcQUY+uyuYMqjrzLX/g4f/cePPimExyP22dv30RjfZUD8lfXD3Wa+qtfTbleSrIveMOuBBj37T+o4eFqLNyAjEh09owLEAg66R3jGiAUdOPoUfoHk4qUsLEzm9uxi7Qf5bH8LUaIEnZ39HNEkwp5uwne0D4VE2Ovot58U9uC4UWwCeD09OaozczByBtHvwhUFuWAhSeHAbhMH0NUXwVzKvKUlGO4QeZn67V9zKTKQRpBEDy5xpBqBsAd3PyL7aoyPuCvr7Syf7UGfFOOzI4ZR2KP+HyEfz8yHy/Hu2UnjICfpflFmUlKzgoo8LbFwFCIOLh75gsNnuvuvpD8YcnLmPUahZxd7Tzrv2a9mo2bWBAnuNYkSmGDMkDBrgjFDwqwJxgwJsyYYM/wPQb2A7h4Et7oAAAAASUVORK5CYII=;" vertex="1" parent="1">
          <mxGeometry x="-60" y="516" width="171" height="24" as="geometry" />
        </mxCell>
        <mxCell id="5HhIV1nGv7MH1atSg8IA-29" value="" style="shape=image;verticalLabelPosition=bottom;labelBackgroundColor=default;verticalAlign=top;aspect=fixed;imageAspect=0;image=data:image/png,iVBORw0KGgoAAAANSUhEUgAAAKsAAAAYCAYAAACFtg3CAAAABHNCSVQICAgIfAhkiAAAABl0RVh0U29mdHdhcmUAZ25vbWUtc2NyZWVuc2hvdO8Dvz4AAAAudEVYdENyZWF0aW9uIFRpbWUARnJpIDA0IEp1bCAyMDI1IDEwOjI5OjA3IFBNIENFU1SPUtTfAAAF8UlEQVR4nO3ae3BUZxnH8e85e0my2Q25J5uQZEPJDShJG8CSC5FbpaEKY9QWdVBj25k6lGZ0pKMDUvAy6lTHKQNtVUqtHToVRWyZwdTWBtJiiRBiEVLuIVnIZnez2U32fjnHP8BRhIZUNqXbvp8/d8/7PO++89t3z3lnpfqmxSqCkADkWz0BQZgoEVYhYYiwCglDhFVIGCKsQsIQYRUSxgcS1tSCcipbf05l688wFJR/EC0/HKQMPrXht+x4ZC66Wz2XjwBpMs9Z9aZspi79Olk1S//zoqri7HkV6+vPEhkdnqzWHxIymVXzKQsepeu8H3GgfXM0xZZpj8e9aLKRwoWrmdbyGKmFFVe/KUkYzNPJnXMvGl0yvsEzqNHw9QvJWVTNsyA5JcoXL2PBjAz8F614kqbRuGwJ84o1OPrt+JUr16cUcEfTIhbcUYJ+ZACbNwbIZFXOo1Syo5Q0cc+iWkq0Ti4M+VHQkn97HbdpLzE0pgB6CqvnY1Gt2H3XRivJXM3CxY3cWVZAXkExlqkp9PW7x6kBhuxC0sJDXPJE4rjCH0/aeBbTJBnIqW3G3LgKr/UEp3duRJJlFCWGpKqoqoKqKKAqpJXWkN/wBbJrl2N780UcR/YRC/n/p2AZ965pJf+8A5ftAqHpn2Vl3V0cjaYTs9pIn9PCJ80bePT50yhT5vKN7z9I8ek3+PuwhdWbGija/DgvX9RQsXwNX8s/i314kDMj+dzz3YWYN7Sx41QKd35+LQ1d/+SdS25UycSc+9dS81oXx16/+gukKW1h8/oGbPv+woWCu3mgXqa7fS8db1rHqaFSsfxh7htcT8/OfmLxXOyPobiGVZuShqm0Gm3qFNIr5pOUYSboHCDssXNp/04yZjSgN2Vx8Y3nCTj60Gfkk1PbjKlkNq4TndeG9Yq+PT9kS7cfbWWMrZunc3btenbbYpgu5PHswlnEOEfZii8z++RTtG09SgCZQ7GfsG7pbbz8XN/lIuf38INtPQQwMmjezpLbs+GUb4KfTIOlcQG5Pb9h/e+7iWjPkTXrIfwHOgFDPJZOmIC4hjUa9OI51cVI71tkVS8hrbSGlFwLAMaiGZz41aOgKmTMbKK4+WGCjgH6/vgEGkMaSih4/aKqD5czBIDi8eCNehh2Xd6jgqNewrokwEhF+VQMxpU8tvEzAMgZOWRas4E+QMXvdnF5rwwxOhZCl6QHJhpWBbfdhVxeSKbcjd1YQG6Kj3d8yo2HCnET59uAFNLK5pJePh/Hkb04u9spaPoiydlF6NPzMC9YRVppDbq0bKyvbsdUMgvLym/hfvcgruMdEBj9PztHCIUj2A+9wLbX3FceZFSUgOcG4y5fKcvSDa8b7niFwyvWsvGn9fhlCduup2l3qu+jhnCz4hrWsMfBmZ3fw1g8k6K7HyRz9iKGDv4BNRomr66FvE+swPa33Wh0SZQsf4SA/Ry929vw9h+/yc4B/nHkJF9ZWk/On57juB9INmCIRGDcQ6Mwo2MRsguL0DGCZKmndqp85d5Sg3leM9WBTtqPuUmuW8as3i2sefIIkQnXEOIprmH9N2//cXp/3UZGVQNFyx5C0uiwdb4EkkReXQtqOMS53T/G/e7BuPQrklUG/ryNX5as49tbt+CwhUhND9DxxCZ+d3a8kWGO/nU/X1r3HZ6e6cRrP8Th3jEsAHIu9Z/7Kve5xzhwrIPgmZN4HvgmT5U58ccUooFhzh54iR37Tr93DSGuJvWcFUDS6Mi7ayXmxvtBhcHOF7F37UGJRieln9aYgzkdRmwOvBNsoUnNId8Uxm7zXLVralIzmRIbwRXUULX6R6zyPcMv9nvRa7UYSz9NW1ser7Ruot333jWE+JmUnfW/qbEItrd24T75NqASdFontV/U62DA+/7GxHwOLl7nWSvmc+ECkFIpmZYLh/2MOYeIoMNcaUTvGKA/NH4NIX4mfWf9qNAXL6K1tZkqU4xgFCKOHva+sIu3bZPzCyFcS4RVSBjiX1dCwhBhFRKGCKuQMLSeEfetnoMgTMi/AAv+VrlXW9LkAAAAAElFTkSuQmCC;" vertex="1" parent="1">
          <mxGeometry x="-80" y="493" width="171" height="24" as="geometry" />
        </mxCell>
      </root>
    </mxGraphModel>
  </diagram>
</mxfile>
